<svg width="49" height="49" viewBox="0 0 49 49" fill="none" xmlns="http://www.w3.org/2000/svg">
<g clip-path="url(#clip0_569_5592)">
<path d="M17.8603 35.0629L16.5866 34.4531L9.01975 45.6412H17.4644L18.2782 45.1106V35.4458L17.8603 35.0629Z" fill="#848484"/>
<path d="M16.7027 34.5077L13.8389 33.1367H13.2992L5.20139 45.11L5.68348 45.6406H9.17322L16.7027 34.5077Z" fill="#747474"/>
<path d="M19.799 45.1104H8.63262C8.12535 45.1104 7.71409 45.5215 7.71409 46.0289V47.1928C7.71409 47.7 8.12525 48.1112 8.63243 48.1113H19.799C20.3063 48.1113 20.7175 47.7001 20.7175 47.1928V46.0289C20.7175 45.5215 20.3063 45.1104 19.799 45.1104Z" fill="#464646"/>
<path d="M7.90425 47.1928V46.0289C7.90425 45.5216 8.3155 45.1104 8.82277 45.1104H2.90801C2.40074 45.1104 1.98948 45.5215 1.98948 46.0289V47.1928C1.98948 47.7001 2.40074 48.1113 2.90801 48.1113H8.82268C8.31541 48.1113 7.90425 47.7001 7.90425 47.1928Z" fill="#848484"/>
<path d="M16.3175 27.8604C15.9738 28.5694 15.7795 29.3645 15.7795 30.2055C15.7795 32.5038 17.2187 34.4644 19.2443 35.2399C20.1139 34.9675 20.8866 34.476 21.497 33.8289V32.6545L16.3175 27.8604Z" fill="#464646"/>
<path d="M15.8705 30.2244C15.8705 29.4028 16.0605 28.6263 16.3968 27.9339L14.7412 26.4014H14.0694C13.0535 27.3597 12.4184 28.7175 12.4184 30.2243C12.4184 33.1272 14.7715 35.4804 17.6744 35.4804C18.2791 35.4804 18.8589 35.3766 19.3994 35.1886C17.3452 34.474 15.8705 32.522 15.8705 30.2244Z" fill="#848484"/>
<path d="M46.3864 1.51248C45.5547 0.680737 44.2062 0.680737 43.3745 1.51248L41.342 3.54497V3.80257L43.8788 6.44711L44.3539 6.55686L46.3863 4.52437C47.2181 3.69272 47.2181 2.34421 46.3864 1.51248Z" fill="#CECBCB"/>
<path d="M46.9483 2.51779C46.8595 2.14961 46.6738 1.79996 46.3864 1.51248C45.5547 0.680737 44.2062 0.680737 43.3745 1.51248L41.342 3.54497V3.80257L42.687 5.20466C43.4889 4.37025 44.285 3.54681 44.6944 3.1374C45.3769 2.45498 46.3738 2.44973 46.9483 2.51779Z" fill="#6C6C6C"/>
<path d="M39.4276 6.92667C39.4043 6.92667 39.3807 6.92547 39.3569 6.92317L15.8696 4.61131C15.4779 4.57275 15.1917 4.22403 15.2303 3.83232C15.2688 3.44062 15.6177 3.15461 16.0092 3.19289L39.4966 5.50466C39.8882 5.54321 40.1745 5.89193 40.1359 6.28364C40.0997 6.65173 39.7897 6.92667 39.4276 6.92667Z" fill="#747474"/>
<path d="M22.6637 11.3227C22.3476 11.3227 22.0588 11.1108 21.9749 10.7907C21.875 10.41 22.1027 10.0204 22.4833 9.92055L39.2473 5.52344C39.628 5.42374 40.0176 5.65127 40.1174 6.032C40.2173 6.41264 39.9897 6.80222 39.609 6.90211L22.845 11.2992C22.7843 11.3151 22.7234 11.3227 22.6637 11.3227Z" fill="#848484"/>
<path d="M43.9812 32.6867C43.6188 32.6867 43.3088 32.4114 43.2728 32.0433L40.9753 8.54153C40.937 8.14992 41.2235 7.80129 41.6152 7.76292C42.0069 7.7264 42.3554 8.0112 42.3937 8.40291L44.6912 31.9046C44.7295 32.2962 44.443 32.6449 44.0513 32.6833C44.0278 32.6855 44.0043 32.6867 43.9812 32.6867Z" fill="#747474"/>
<path d="M37.2213 26.016C37.1608 26.016 37.0994 26.0082 37.0382 25.9921C36.6577 25.8912 36.4311 25.501 36.532 25.1206L40.9939 8.29184C41.0947 7.9113 41.4847 7.68505 41.8653 7.78558C42.2457 7.88649 42.4723 8.27662 42.3714 8.65707L37.9096 25.4858C37.825 25.8051 37.5366 26.016 37.2213 26.016Z" fill="#848484"/>
<path d="M39.3 5.58691L41.3377 3.54925L44.3491 6.56072L42.3115 8.59838L39.3 5.58691Z" fill="#6C6C6C"/>
<path d="M40.8479 7.1249C41.3377 6.6121 42.1024 5.81227 42.8421 5.04325L41.3429 3.54395L39.3049 5.58188L40.8479 7.1249Z" fill="#848484"/>
<path d="M42.7697 9.76131C42.5874 9.76131 42.4049 9.69168 42.2658 9.55259L38.3467 5.63352C38.0683 5.35517 38.0683 4.90406 38.3467 4.62562C38.6249 4.34745 39.0761 4.34745 39.3545 4.62562L43.2736 8.54469C43.552 8.82305 43.552 9.27415 43.2736 9.55259C43.1345 9.69177 42.9521 9.76131 42.7697 9.76131Z" fill="#464646"/>
<path d="M43.2294 33.9697L19.3681 9.90137C16.2046 17.0432 15.6552 24.7099 18.0235 31.3211C24.5642 37.2211 34.3347 38.1271 43.3294 34.4183L43.2294 33.9697Z" fill="#595961"/>
<path d="M19.4954 10.03L14.0284 4.51562L13.4806 4.56967C9.62883 13.9111 10.7535 24.09 17.2814 30.6179C17.6768 31.0133 18.0859 31.3885 18.5072 31.7444C15.7554 25.141 16.2026 17.2872 19.4954 10.03Z" fill="#999999"/>
<path d="M45.4109 32.2591L21.2104 8.05859C20.9722 8.0953 20.743 8.20358 20.5596 8.38694L19.507 9.43966C19.2809 9.66572 19.1685 9.96095 19.1653 10.2573L43.289 34.3809C43.6477 34.7396 44.2292 34.7396 44.5879 34.3809L45.4109 33.5579C45.7695 33.1994 45.7695 32.6177 45.4109 32.2591Z" fill="#898989"/>
<path d="M19.543 9.45655L20.5736 8.42587C20.7635 8.23606 21.0032 8.12741 21.2505 8.09799L15.6403 2.48776C15.2816 2.12908 14.7001 2.12908 14.3413 2.48776L13.5183 3.31083C13.1596 3.66952 13.1596 4.25103 13.5183 4.60972L19.2073 10.2988C19.1999 9.99481 19.311 9.68851 19.543 9.45655Z" fill="#595961"/>
</g>
<defs>
<clipPath id="clip0_569_5592">
<rect width="47.2222" height="47.2222" fill="white" transform="translate(0.888885 0.888672)"/>
</clipPath>
</defs>
</svg>
