<svg width="79" height="23" viewBox="0 0 79 23" fill="none" xmlns="http://www.w3.org/2000/svg">
<path d="M15.0218 16.4859H26.5562L21.4682 22.0905H0L17.5823 5.74695L6.06376 5.66885L11.1912 0.0398059H12.428C12.2904 0.385879 12.1939 0.768707 12.1528 1.17297C11.9678 2.96612 12.9056 4.52651 14.2484 4.65667C14.9727 4.72558 15.667 4.36572 16.1811 3.73636C15.5864 3.56945 15.1499 3.03655 15.1499 2.40413C15.1499 1.63848 15.792 1.01677 16.5828 1.01677C16.7409 1.01677 16.8943 1.04128 17.0367 1.08875C17.0272 0.715113 16.9703 0.358324 16.869 0.029095H17.7626C17.6219 0.378231 17.5254 0.764113 17.4827 1.17297C17.2976 2.96612 18.2355 4.52651 19.5783 4.65667C20.3026 4.72558 20.9969 4.36572 21.5109 3.73636C20.9163 3.56945 20.4798 3.03655 20.4798 2.40413C20.4798 1.63848 21.1219 1.01677 21.9127 1.01677C22.0708 1.01677 22.2242 1.04128 22.3666 1.08875C22.3571 0.712051 22.2986 0.350668 22.1958 0.0199076L32.6942 0L15.0218 16.4859Z" fill="#DE562C"/>
<path d="M32.8364 12.5526V12.4639C32.8364 12.386 32.8206 12.3034 32.7905 12.2209C32.7604 12.1384 32.7034 12.0956 32.6226 12.0956H29.5643C29.2586 12.0956 28.983 12.0238 28.7391 11.8816C28.4952 11.7395 28.283 11.5576 28.104 11.336C27.925 11.1144 27.7904 10.8714 27.6986 10.6054C27.6067 10.3395 27.5608 10.0797 27.5608 9.82291C27.5608 9.58601 27.632 9.31856 27.7746 9.019C27.9171 8.71944 28.1009 8.43363 28.3258 8.16311C28.5507 7.89259 28.8056 7.66639 29.0907 7.48451C29.3758 7.30264 29.6609 7.21094 29.9476 7.21094H37.7478C37.5134 7.54565 37.2457 7.88036 36.9448 8.21508C36.6439 8.54979 36.3097 8.8845 35.9439 9.21921H30.8963C30.7838 9.21921 30.6872 9.29257 30.6064 9.44082C30.5241 9.58907 30.4845 9.70676 30.4845 9.7954V9.86877C30.4845 9.87794 30.5051 9.90086 30.5462 9.93449C30.5874 9.96964 30.6175 9.99562 30.6381 10.0155C30.6793 10.0552 30.7379 10.0919 30.8139 10.1255C30.8899 10.1607 30.9343 10.1775 30.9438 10.1775H33.8501C34.1763 10.1775 34.4567 10.2539 34.6911 10.4067C34.9255 10.5596 35.1171 10.7506 35.2644 10.9829C35.4117 11.2137 35.5226 11.4629 35.5938 11.7288C35.6651 11.9947 35.7015 12.2408 35.7015 12.467V12.5556C35.7015 12.8109 35.6398 13.0845 35.5178 13.3748C35.3959 13.6652 35.2343 13.9327 35.0363 14.1788C34.8368 14.4248 34.6087 14.6281 34.3474 14.7916C34.0876 14.9536 33.82 15.0346 33.5444 15.0346H25.7441C25.7948 14.9368 25.8994 14.7794 26.0577 14.5624C26.2161 14.3469 26.384 14.1268 26.563 13.9052C26.7419 13.6836 26.9067 13.4864 27.0603 13.3152C27.2139 13.1425 27.3058 13.0569 27.3359 13.0569H32.5355C32.6891 13.0569 32.7778 13.0126 32.8032 12.924C32.8285 12.8353 32.8412 12.7421 32.8412 12.6443V12.5556L32.8364 12.5526Z" fill="#DE562C"/>
<path d="M38.6253 7.21094H41.5386L39.8243 11.7878L41.3721 10.2377H43.6788L44.8165 7.21094H47.7L44.7709 15.0346H41.8875L42.934 12.2295H39.6561L38.6096 15.0346H35.6963L38.6253 7.21094Z" fill="#DE562C"/>
<path d="M48.6536 7.21094H51.6464L48.6374 15.0346H45.6446L48.6536 7.21094Z" fill="#DE562C"/>
<path d="M61.1243 7.21094C61.0529 7.34846 60.9324 7.52878 60.7643 7.74882C60.5962 7.97039 60.4169 8.1889 60.2282 8.40589C60.0394 8.62287 59.8555 8.80929 59.6762 8.96669C59.497 9.12408 59.3669 9.20353 59.286 9.20353H54.5691L53.6951 11.5201L55.1496 10.1632H58.6881L56.4977 12.1558H53.4493L53.1115 13.0405H58.9768C58.9657 13.0604 58.9403 13.1016 58.9006 13.1658C58.8594 13.23 58.8182 13.2957 58.7785 13.3645C58.7373 13.4332 58.696 13.4974 58.6564 13.557C58.6151 13.6166 58.5898 13.6502 58.5802 13.6609C58.4883 13.7786 58.363 13.9161 58.2043 14.0735C58.0457 14.2309 57.8903 14.3806 57.738 14.5243C57.5842 14.6664 57.4494 14.7871 57.332 14.8864C57.2146 14.9842 57.1512 15.0346 57.1401 15.0346H49.4365L52.393 7.214H61.1227L61.1243 7.21094Z" fill="#DE562C"/>
<path d="M59.0713 15.0346L62.027 7.21094H64.9511L62.7454 13.0413H67.5992C67.6087 13.0413 67.5501 13.1253 67.4232 13.292C67.2948 13.4586 67.1346 13.6543 66.9412 13.8744C66.7477 14.0961 66.5431 14.3177 66.3291 14.5394C66.115 14.761 65.9358 14.9261 65.7931 15.0346H59.0713Z" fill="#DE562C"/>
<path d="M78.0037 11.505C77.5642 12.1455 77.123 12.6881 76.6787 13.136C76.2343 13.5839 75.7535 13.9478 75.2377 14.229C74.722 14.5088 74.1554 14.7136 73.5365 14.842C72.9176 14.9704 72.2115 15.0346 71.4148 15.0346H67.5999L70.5579 7.21094H77.2246C77.8371 7.21094 78.2815 7.37298 78.5576 7.69858C78.8337 8.02419 78.9718 8.43693 78.9718 8.93833C78.9718 9.32202 78.8893 9.74241 78.7274 10.201C78.5639 10.6581 78.3243 11.0937 78.0069 11.508L78.0037 11.505ZM72.778 9.20278L71.3228 13.0413H71.7211C71.9972 13.0413 72.2987 12.9893 72.6257 12.8869C72.9526 12.7829 73.2747 12.6484 73.5905 12.4802C73.9063 12.3136 74.2015 12.1241 74.4712 11.9116C74.741 11.7006 74.9537 11.4866 75.1076 11.2695C75.1695 11.1916 75.2377 11.1029 75.3139 11.0036C75.3901 10.9057 75.4536 10.7926 75.5059 10.6642C75.5678 10.5067 75.6281 10.3539 75.69 10.2071C75.7519 10.0588 75.782 9.92126 75.782 9.79438C75.782 9.62775 75.744 9.48711 75.6678 9.37399C75.5916 9.26087 75.4551 9.20431 75.2615 9.20431H72.7796L72.778 9.20278Z" fill="#DE562C"/>
</svg>
