<svg width="88" height="23" viewBox="0 0 88 23" fill="none" xmlns="http://www.w3.org/2000/svg">
<path d="M15.7774 16.4871H27.892L22.5482 22.0905H0L18.4668 5.74735L6.36877 5.66925L11.7542 0.0382851H13.0548C12.9086 0.384382 12.8073 0.767233 12.7641 1.17305C12.5698 2.96633 13.5548 4.52683 14.9651 4.657C15.7259 4.72591 16.4552 4.36603 16.995 3.73662C16.3704 3.5697 15.912 3.03677 15.912 2.4043C15.912 1.6386 16.5864 1.01685 17.4169 1.01685C17.5831 1.01685 17.7442 1.04135 17.8937 1.08882C17.8837 0.715163 17.8223 0.356816 17.7176 0.0275641H18.6562C18.5083 0.376724 18.407 0.762639 18.3621 1.17305C18.1678 2.96633 19.1528 4.52683 20.5631 4.657C21.3239 4.72591 22.0532 4.36603 22.593 3.73662C21.9684 3.5697 21.51 3.03677 21.51 2.4043C21.51 1.6386 22.1844 1.01685 23.015 1.01685C23.1811 1.01685 23.3422 1.04135 23.4917 1.08882C23.4817 0.710569 23.4203 0.35069 23.3123 0.0183761L34.3389 0L15.7774 16.4871Z" fill="#2967B1"/>
<path d="M30.1747 6.98926H37.5801C37.9555 6.98926 38.2628 7.06583 38.502 7.21897C38.7395 7.37211 38.9256 7.5666 39.0585 7.8009C39.1914 8.03521 39.2827 8.29095 39.3326 8.56661C39.3824 8.84226 39.4073 9.09647 39.4073 9.33231C39.4073 9.85298 39.2694 10.2818 38.992 10.6187C38.7146 10.9556 38.3691 11.2236 37.9538 11.4227C37.5385 11.6218 37.0801 11.7642 36.5751 11.8515C36.0718 11.9388 35.5983 11.9969 35.1548 12.0276L38.409 15.1042H34.8558L31.4355 12.196L31.2528 12.3185L30.1565 15.1042H26.9688L30.1731 6.99232L30.1747 6.98926ZM36.1847 9.33077C36.1847 9.24961 36.1681 9.1807 36.1349 9.12403C36.1017 9.06737 36.0186 9.03981 35.8857 9.03981H32.5485L31.6016 11.4273L33.0634 10.0643H35.7196C35.8857 10.0643 36.0036 9.9954 36.0767 9.85758C36.1482 9.71975 36.1847 9.6003 36.1847 9.4977V9.32924V9.33077Z" fill="#2967B1"/>
<path d="M51.1441 6.98926C51.066 7.13168 50.9364 7.31851 50.7537 7.54822C50.571 7.77793 50.3766 8.00458 50.1723 8.22969C49.968 8.45481 49.7686 8.64777 49.5743 8.81163C49.3799 8.97549 49.2387 9.05665 49.1507 9.05665H44.0361L43.0892 11.4594L44.6673 10.0505H48.5029L46.1291 12.1164H42.8251L42.4597 13.0352H48.8185C48.8068 13.0551 48.7803 13.0996 48.7354 13.1654C48.6906 13.2313 48.6474 13.3002 48.6025 13.3721C48.5577 13.4441 48.5145 13.51 48.4696 13.5712C48.4248 13.6325 48.3982 13.6677 48.3866 13.6784C48.2869 13.8009 48.1507 13.9434 47.9796 14.1072C47.8085 14.2711 47.6391 14.4257 47.473 14.5743C47.3068 14.7228 47.1607 14.8469 47.0328 14.9495C46.9048 15.0521 46.8367 15.1026 46.8251 15.1026H38.4746L41.6789 6.99079H51.1424L51.1441 6.98926Z" fill="#2967B1"/>
<path d="M52.0595 6.98926H59.6808C59.9897 6.98926 60.2505 7.06889 60.4615 7.22663C60.6708 7.38436 60.8436 7.57885 60.9765 7.80856C61.1094 8.03827 61.2057 8.28329 61.2672 8.54363C61.327 8.80397 61.3585 9.03675 61.3585 9.24042C61.3585 9.66921 61.2472 10.0613 61.0263 10.4196C60.8054 10.7764 60.523 11.0858 60.1791 11.3461C59.8353 11.6064 59.4598 11.8086 59.0495 11.951C58.6392 12.0934 58.2472 12.1654 57.8701 12.1654H53.204L52.0412 15.1042H48.8535L52.0578 6.99232L52.0595 6.98926ZM53.5047 11.3982L55.0977 10.0965H57.7539C57.7655 10.0965 57.7904 10.0735 57.8286 10.0276C57.8668 9.98162 57.9083 9.92802 57.9532 9.86676C57.998 9.80551 58.0379 9.74732 58.0778 9.69065C58.116 9.63399 58.1409 9.59111 58.1525 9.56048L58.1858 9.48391C58.1741 9.47319 58.1642 9.44869 58.1525 9.40734C58.1193 9.35681 58.0612 9.28789 57.9781 9.2006C57.8951 9.11331 57.8419 9.07043 57.8203 9.07043H54.4167L53.503 11.3966L53.5047 11.3982Z" fill="#2967B1"/>
<path d="M67.5332 15.1011L67.1843 13.3721C67.1628 13.4334 67.0813 13.5513 66.9435 13.7244C66.8056 13.8974 66.6495 14.0812 66.4784 14.2757C66.3073 14.4702 66.1378 14.6478 65.9717 14.8117C65.8056 14.9755 65.6843 15.072 65.6063 15.1026H58.583C58.6046 15.0215 58.6162 14.9847 58.6162 14.9954V14.9495L64.593 7.9081C64.6262 7.84684 64.6926 7.76568 64.7923 7.66307C64.892 7.56047 64.9999 7.46246 65.1162 7.36445C65.2325 7.26797 65.3488 7.18068 65.4651 7.10411C65.5813 7.02754 65.6777 6.98926 65.7558 6.98926H68.5448C68.6561 6.98926 68.7574 7.04592 68.8521 7.15771C68.9451 7.26951 69.0265 7.40733 69.093 7.57119C69.1594 7.73505 69.2176 7.90504 69.2674 8.08421C69.3172 8.26338 69.3588 8.41346 69.392 8.53598L70.4883 15.1026H67.5332V15.1011ZM63.8139 13.0506H67.1843L66.6029 9.45328L63.8139 12.8974V13.0506Z" fill="#2967B1"/>
<path d="M74.4875 6.98926H77.6752L74.4709 15.1011H71.2832L74.4875 6.98926Z" fill="#2967B1"/>
<path d="M78.6376 6.98926H86.0429C86.4416 6.98926 86.7622 7.06583 87.0064 7.21897C87.2506 7.37211 87.435 7.5666 87.5629 7.8009C87.6908 8.03521 87.7722 8.29095 87.812 8.56661C87.8503 8.84226 87.8702 9.09647 87.8702 9.33231C87.8702 9.85298 87.7323 10.2818 87.4549 10.6187C87.1775 10.9556 86.832 11.2236 86.4167 11.4227C86.0014 11.6218 85.543 11.7642 85.038 11.8515C84.5346 11.9388 84.0612 11.9969 83.6177 12.0276L86.8718 15.1042H83.3187L79.8984 12.196L79.7157 12.3185L78.6194 15.1042H75.4316L78.636 6.99232L78.6376 6.98926ZM84.6476 9.33077C84.6476 9.24961 84.631 9.1807 84.5978 9.12403C84.5645 9.06737 84.4815 9.03981 84.3486 9.03981H81.0114L80.0645 11.4273L81.5263 10.0643H84.1825C84.3486 10.0643 84.4665 9.9954 84.5396 9.85758C84.6111 9.71975 84.6476 9.6003 84.6476 9.4977V9.32924V9.33077Z" fill="#2967B1"/>
</svg>
