<svg width="51" height="51" viewBox="0 0 51 51" fill="none" xmlns="http://www.w3.org/2000/svg">
<g clip-path="url(#clip0_569_5623)">
<path d="M31.2292 38.7302C31.8542 36.6469 33.1042 34.7718 34.7709 33.3135C37.8959 30.7093 39.8751 26.751 39.8751 22.376C39.8751 14.251 33.1043 7.58425 24.7709 8.00095C17.375 8.31345 11.3333 14.5635 11.125 21.9593C11.0208 26.5427 13 30.6052 16.2292 33.3135C18 34.7718 19.25 36.6468 19.875 38.7302H31.2292Z" fill="#FFD15C"/>
<path d="M24.1458 38.9381H25.0833L20.9166 23.4173C21.0208 23.4173 21.1249 23.4173 21.2291 23.4173C21.7499 23.4173 22.2708 23.209 22.6874 22.7923C22.8957 22.584 23.1041 22.4798 23.4166 22.4798C23.7291 22.4798 23.9374 22.584 24.1458 22.7923C24.875 23.6256 26.125 23.6256 26.8541 22.7923C27.0624 22.584 27.2708 22.4798 27.5833 22.4798C27.7916 22.4798 28.1041 22.584 28.3125 22.7923C28.7292 23.209 29.1458 23.4173 29.7708 23.4173C29.875 23.4173 29.9791 23.4173 30.0833 23.4173L26.0208 38.9381H26.9583L31.2291 22.6881C31.2291 22.4798 31.2291 22.2714 31.0208 22.1673C30.8125 22.0631 30.6041 22.1673 30.5 22.2715C30.2917 22.4798 30.0833 22.584 29.875 22.584C29.5625 22.584 29.3542 22.4798 29.0417 22.2715C28.625 21.8548 28.2084 21.6465 27.6875 21.6465C27.1666 21.6465 26.75 21.8548 26.3333 22.2715C25.9166 22.6882 25.2916 22.6882 24.875 22.2715C24.5625 21.8548 24.0417 21.6465 23.5208 21.6465C23 21.6465 22.4791 21.8548 22.1666 22.2715C21.9583 22.4798 21.6458 22.584 21.3333 22.584C21.125 22.584 20.8125 22.4798 20.7083 22.2715C20.6041 22.1673 20.3958 22.0632 20.1875 22.1673C19.9792 22.2715 19.875 22.4798 19.9792 22.6881L24.1458 38.9381Z" fill="white"/>
<path d="M22.2715 48.3125C22.7924 49.5625 24.0424 50.5 25.5007 50.5C26.959 50.5 28.209 49.5625 28.7299 48.3125H22.2715Z" fill="#344A5E"/>
<path d="M29.3542 48.4177H21.75C20.7083 48.4177 19.875 47.5844 19.875 46.5427V38.626H31.2292V46.5427C31.2292 47.5843 30.3958 48.4177 29.3542 48.4177Z" fill="#344A5E"/>
<path d="M31.1253 42.5846H19.8753C19.2503 42.5846 18.7295 42.0638 18.7295 41.4388C18.7295 40.8138 19.2503 40.293 19.8753 40.293H31.1253C31.7503 40.293 32.2711 40.8138 32.2711 41.4388C32.2711 42.0638 31.7503 42.5846 31.1253 42.5846Z" fill="#415A6B"/>
<path d="M31.1253 46.2301H19.8753C19.2503 46.2301 18.7295 45.7093 18.7295 45.0843C18.7295 44.4593 19.2503 43.9385 19.8753 43.9385H31.1253C31.7503 43.9385 32.2711 44.4593 32.2711 45.0843C32.2711 45.7092 31.7503 46.2301 31.1253 46.2301Z" fill="#415A6B"/>
<path d="M25.5007 0.500977C24.9799 0.500977 24.459 0.917676 24.459 1.54268V5.08438C24.459 5.60518 24.8757 6.12607 25.5007 6.12607C26.1257 6.12607 26.5424 5.70938 26.5424 5.08438V1.54268C26.5424 0.917676 26.0215 0.500977 25.5007 0.500977Z" fill="#FFD15C"/>
<path d="M11.5421 6.85452C11.1254 6.43782 10.5004 6.43782 10.0838 6.85452C9.66719 7.27122 9.66709 7.89622 10.0838 8.31282L12.5838 10.8128C13.0005 11.2295 13.6255 11.2295 14.0421 10.8128C14.4587 10.3961 14.4588 9.77112 14.0421 9.35452L11.5421 6.85452Z" fill="#FFD15C"/>
<path d="M8.31289 21.2305H4.77119C4.25039 21.2305 3.72949 21.6472 3.72949 22.2722C3.72949 22.793 4.14619 23.3139 4.77119 23.3139H8.31289C8.83369 23.3139 9.35459 22.8972 9.35459 22.2722C9.35459 21.7513 8.83369 21.2305 8.31289 21.2305Z" fill="#FFD15C"/>
<path d="M12.584 33.7305L10.084 36.2305C9.66731 36.6472 9.66731 37.2722 10.084 37.6888C10.5007 38.1054 11.1257 38.1055 11.5423 37.6888L14.0423 35.1888C14.459 34.7721 14.459 34.1471 14.0423 33.7305C13.6256 33.3139 13.0007 33.3138 12.584 33.7305Z" fill="#FFD15C"/>
<path d="M38.4174 33.7305C38.0007 33.3138 37.3757 33.3138 36.959 33.7305C36.5423 34.1472 36.5423 34.7722 36.959 35.1888L39.459 37.6888C39.8757 38.1055 40.5007 38.1055 40.9173 37.6888C41.3339 37.2721 41.334 36.6471 40.9173 36.2305L38.4174 33.7305Z" fill="#FFD15C"/>
<path d="M46.2299 21.2305H42.6882C42.1674 21.2305 41.6465 21.6472 41.6465 22.2722C41.6465 22.793 42.0632 23.3139 42.6882 23.3139H46.2299C46.7507 23.3139 47.2716 22.8972 47.2716 22.2722C47.2715 21.7513 46.8549 21.2305 46.2299 21.2305Z" fill="#FFD15C"/>
<path d="M39.4589 6.85448L36.9589 9.35448C36.5422 9.77118 36.5422 10.3962 36.9589 10.8128C37.3756 11.2295 38.0006 11.2295 38.4172 10.8128L40.9172 8.31278C41.3339 7.89608 41.3339 7.27108 40.9172 6.85448C40.5005 6.43788 39.8756 6.43778 39.4589 6.85448Z" fill="#FFD15C"/>
</g>
<defs>
<clipPath id="clip0_569_5623">
<rect width="50" height="50" fill="white" transform="translate(0.5 0.500977)"/>
</clipPath>
</defs>
</svg>
