<svg width="75" height="75" viewBox="0 0 75 75" fill="none" xmlns="http://www.w3.org/2000/svg">
<path d="M37.5 75C58.2107 75 75 58.2107 75 37.5C75 16.7893 58.2107 0 37.5 0C16.7893 0 0 16.7893 0 37.5C0 58.2107 16.7893 75 37.5 75Z" fill="#00C566" fill-opacity="0.08"/>
<path fill-rule="evenodd" clip-rule="evenodd" d="M48.187 61.8889H27.5314C25.37 61.8889 23.6113 60.1305 23.6113 57.9688V17.8087C23.6113 15.6473 25.37 13.8887 27.5314 13.8887H48.187C50.3484 13.8887 52.1068 15.6473 52.1068 17.8087V57.9688C52.1068 60.1285 50.3465 61.8889 48.187 61.8889ZM41.3715 58.958H34.3433C33.0051 58.958 33.0051 56.9257 34.3433 56.9257H41.3715C42.7071 56.9257 42.7113 58.958 41.3715 58.958ZM30.6055 18.6047C29.8694 18.6047 28.3034 18.8601 28.3034 17.5885C28.3034 16.317 29.8697 16.5724 30.6055 16.5724C31.9434 16.5724 31.9437 18.6047 30.6055 18.6047ZM40.24 18.6047H35.475C34.1369 18.6047 34.1369 16.5724 35.475 16.5724H40.2363C41.574 16.5724 41.5754 18.6047 40.24 18.6047ZM50.0751 20.8283H25.6442V54.4588H50.0751V20.8283Z" fill="#00C566"/>
<path fill-rule="evenodd" clip-rule="evenodd" d="M34.1928 47.0486C33.8266 47.0486 33.5572 46.6909 33.6601 46.3379L35.7799 39.0167L33.3277 38.7695C32.8957 38.727 32.6729 38.2185 32.9454 37.8737L39.8656 28.9417C40.2346 28.4664 41.0053 28.8444 40.8427 29.4362L38.9583 36.1358H42.337C42.8148 36.1358 43.0573 36.6927 42.7617 37.0471L34.6214 46.8478C34.5095 46.9792 34.3511 47.0486 34.1928 47.0486Z" fill="#00C566"/>
</svg>
