<svg width="23" height="24" viewBox="0 0 23 24" fill="none" xmlns="http://www.w3.org/2000/svg">
<g clip-path="url(#clip0_653_46057)">
<path d="M18.1031 7.86523L18.0899 3.46875L13.6961 3.48457L13.7093 7.87842L9.31543 7.89161L9.32862 12.2881L13.7225 12.2723L13.7383 16.6687L18.1321 16.6529L18.1189 12.2591L22.5128 12.2459L22.4996 7.84941L18.1031 7.86523Z" fill="#59A4FF"/>
<path d="M1.04959 16.0529C-0.390406 17.1263 -0.332384 19.3022 1.17091 20.2859C3.8452 22.0345 7.67465 23.9808 9.86102 24.0019C12.9837 24.0283 17.8496 23.0578 21.0988 19.8639C21.0988 19.8639 21.4338 19.5369 20.9881 19.0833C20.5423 18.6296 17.5832 20.0142 15.2834 19.9931C12.9837 19.9747 10.1037 19.9378 8.97487 18.7931C8.97487 18.7931 9.97179 19.1677 12.2373 19.1861C14.3076 19.2046 15.3678 19.0331 15.3731 18.5716C15.3784 18.1101 14.8852 17.4982 14.0149 17.4824C9.89003 17.4164 8.93267 14.4942 5.24828 14.4863C3.60256 14.4837 2.18894 15.2011 1.04959 16.0503V16.0529Z" fill="#2967B1"/>
<g style="mix-blend-mode:screen">
<path d="M8.9742 18.7912C9.12716 18.8387 9.40145 18.9099 9.40145 18.9099C9.892 19.0207 10.8124 19.1736 12.234 19.1842C14.3043 19.2026 15.3645 19.0312 15.3698 18.5697C15.3724 18.1108 14.8819 17.4963 14.0116 17.4804C9.88673 17.4145 8.92936 14.4923 5.24497 14.4844C3.36189 14.4791 1.78211 15.4207 0.568923 16.4255C0.133758 16.7842 0.516176 17.4804 1.0542 17.309C2.01683 17.0004 3.13508 16.7446 4.17947 16.7525C6.74035 16.7736 8.06695 18.5011 8.9742 18.7859V18.7912Z" fill="#2967B1"/>
</g>
<g style="mix-blend-mode:screen">
<path d="M20.8972 19.721C20.702 19.8792 15.3719 23.677 9.85457 22.8067C8.64138 22.6141 7.48358 22.3267 6.40226 21.9838C5.77984 21.786 5.4449 22.6854 6.04358 22.9438C7.48358 23.5689 8.84709 23.9908 9.85984 23.9988C12.9825 24.0251 17.8484 23.0546 21.0976 19.8607C21.0976 19.8607 21.4326 19.5337 20.9869 19.0801C21.066 19.2673 21.0897 19.5627 20.8946 19.7183L20.8972 19.721Z" fill="#2967B1"/>
</g>
<path d="M10.6394 1.63516L10.6341 0L9.00159 0.00527473L9.00687 1.64044L7.3717 1.64571L7.37698 3.28088L9.01214 3.2756L9.01742 4.90813L10.6499 4.90286L10.6447 3.27033L12.2798 3.26506L12.2746 1.62989L10.6394 1.63516Z" fill="#59A4FF"/>
<path d="M7.98227 6.04415L7.97963 4.8125L6.74798 4.81777L6.75325 6.04679L5.52161 6.05206L5.52424 7.28371L6.75589 7.27843L6.76117 8.51008L7.99018 8.50744L7.98754 7.2758L9.21919 7.27052L9.21391 6.03887L7.98227 6.04415Z" fill="#59A4FF"/>
</g>
<defs>
<clipPath id="clip0_653_46057">
<rect width="22.5073" height="24" fill="white"/>
</clipPath>
</defs>
</svg>
