<svg width="28" height="24" viewBox="0 0 28 24" fill="none" xmlns="http://www.w3.org/2000/svg">
<g clip-path="url(#clip0_653_46020)">
<path d="M27.9995 3.02734L22.8544 4.11836V4.18811L25.5021 4.59273V8.81245L27.9995 8.30859L27.0414 6.19769L27.9995 3.02734Z" fill="#59A4FF"/>
<path d="M22.9353 5.1894L22.8544 5.18801V4.14453L22.9353 4.15806V5.1894Z" fill="#59A4FF"/>
<path d="M5.04985 21.4926V22.6534L2.47603 22.042V18.0645L0 18.5732L1.04296 21.1848L0 23.8457L5.14518 22.7679V21.4722L5.04985 21.4926Z" fill="#59A4FF"/>
<path d="M22.3634 10.623V13.835C22.3634 16.7722 20.7612 19.5112 18.1817 20.9791C16.9129 21.7022 15.4661 22.0853 14 22.0853C12.5339 22.0853 11.0874 21.7019 9.81829 20.9791C7.32995 19.5615 5.75091 16.9627 5.64221 14.1435L22.3634 10.623Z" fill="#2967B0"/>
<path d="M15.5888 0.263732C15.0735 0.0871011 14.5374 0 14.0003 0C13.4631 0 12.9271 0.0871011 12.4131 0.263732L3.6969 3.23766V13.8355C3.6969 14.3453 3.73559 14.8509 3.81122 15.3458C3.89811 15.9194 4.03459 16.4795 4.21645 17.0229C4.81584 18.809 5.90841 20.4073 7.38404 21.6254C7.83745 22.0019 8.3264 22.3402 8.84876 22.638C9.64655 23.0919 10.4897 23.4316 11.355 23.6603C12.2218 23.8858 13.1103 24 14.0006 24C15.7795 24 17.558 23.5461 19.1521 22.638C20.7463 21.7302 22.0344 20.4375 22.9233 18.9176C23.0447 18.7097 23.159 18.4977 23.2663 18.2815C23.9385 16.9181 24.3036 15.4027 24.3036 13.8355V3.23766L15.5888 0.263732ZM22.77 13.8355C22.77 15.5984 22.2202 17.2936 21.2419 18.7083C20.5117 19.7671 19.5419 20.6697 18.3856 21.329C17.0532 22.0862 15.5378 22.487 13.9999 22.487C12.462 22.487 10.9466 22.0862 9.61419 21.3276C9.54102 21.287 9.46961 21.2447 9.39926 21.2013C7.67142 20.1519 6.38891 18.5494 5.73007 16.7036C5.53589 16.164 5.39519 15.6026 5.31534 15.0289C5.25871 14.6361 5.22986 14.2377 5.22986 13.8355V4.31411L12.9126 1.69205C13.614 1.45296 14.3854 1.45296 15.0868 1.69205L22.7696 4.31411V13.8355H22.77Z" fill="#0D1F37"/>
<path d="M22.3628 4.6004V10.6232L5.64161 14.1437C5.63739 14.0417 5.63599 13.9386 5.63599 13.8352V4.6004L13.0458 2.071C13.6603 1.86175 14.3381 1.86175 14.9527 2.071L22.3625 4.6004H22.3628Z" fill="#0D1F37"/>
<path d="M12.9132 1.69104L5.22974 4.31344V13.8345C5.22974 16.9153 6.90974 19.7866 9.61441 21.327C10.9458 22.0855 12.4622 22.4863 14.0001 22.4863C15.538 22.4863 17.0538 22.0855 18.3852 21.3273C21.0898 19.7866 22.7702 16.9153 22.7702 13.8345V4.31344L15.0867 1.69104C14.386 1.45195 13.6139 1.45195 12.9132 1.69104ZM22.3629 13.8345C22.3629 16.7724 20.7606 19.5103 18.1815 20.9793C16.912 21.7024 15.4659 22.0845 14.0001 22.0845C12.5344 22.0845 11.0879 21.7021 9.81808 20.9789C7.23933 19.51 5.63707 16.7724 5.63707 13.8345V4.59973L13.0465 2.07068C13.661 1.86108 14.3385 1.86108 14.9534 2.07068L22.3629 4.59973V13.8345Z" fill="white"/>
<g opacity="0.4">
<path d="M24.3034 5.74679V11.0287C24.2939 11.0329 24.2841 11.0343 24.2732 11.0367L22.7701 11.3535L5.31618 15.0288L3.81171 15.3456C3.73608 14.8508 3.69739 14.3452 3.69739 13.8354V10.1001C3.70689 10.0973 3.71673 10.0959 3.72623 10.0932L5.2307 9.77495L22.7701 6.0709L24.3034 5.74609V5.74679Z" fill="black"/>
<path d="M24.303 12.7793V13.8353C24.303 15.4024 23.9379 16.9182 23.2657 18.2812L21.2417 18.7081L9.39935 21.201L7.38377 21.6251C5.90815 20.4071 4.81558 18.8087 4.21619 17.0226L5.73051 16.7034L22.7701 13.1041L24.3034 12.7793H24.303Z" fill="black"/>
</g>
<path d="M25.4063 4.69727V8.83925C25.4063 9.50552 24.9342 10.0812 24.2736 10.2204L2.59399 14.7854V10.658C2.59399 9.99204 3.0657 9.41634 3.72595 9.27684L25.4063 4.69727Z" fill="#59A4FF"/>
<path d="M7.32307 12.0938L8.97827 11.7297L8.42976 12.7159L5.34946 13.3936L7.34262 10.4309L5.6872 10.783L6.24055 9.79161L6.41777 9.75226C6.40931 9.80787 6.40802 9.86728 6.41508 9.92819C6.44655 10.1984 6.63173 10.3986 6.82869 10.3753C6.9348 10.3627 7.02271 10.2878 7.07609 10.1787C6.98551 10.1729 6.90547 10.1082 6.88497 10.015C6.86016 9.9022 6.93212 9.79035 7.04558 9.7654C7.06816 9.76043 7.09116 9.75907 7.11295 9.76151C7.0994 9.70666 7.07963 9.65577 7.0546 9.61068L7.18282 9.58247C7.17404 9.63834 7.17269 9.69832 7.17969 9.7598C7.21134 10.0299 7.39652 10.2302 7.59331 10.2069C7.69959 10.1943 7.7875 10.1193 7.84088 10.0103C7.7503 10.0044 7.67026 9.93974 7.64976 9.84657C7.62494 9.73377 7.69691 9.62193 7.81036 9.59697C7.83295 9.592 7.85578 9.59068 7.87774 9.59308C7.86407 9.5377 7.84404 9.4865 7.81855 9.44095L9.32429 9.10674L7.32282 12.0935L7.32307 12.0938Z" fill="white"/>
<path d="M9.71269 9.02185L10.895 8.76176L10.4248 12.2861L9.24248 12.5462L9.71269 9.02185Z" fill="white"/>
<path d="M11.2521 8.68444L14.0781 8.06275C14.193 8.03748 14.2966 8.0478 14.3882 8.09441C14.4802 8.1409 14.561 8.20492 14.6307 8.28646C14.7003 8.36799 14.7579 8.4587 14.8033 8.5581C14.8489 8.65797 14.8809 8.74879 14.8989 8.83064C14.9368 9.00295 14.9304 9.16997 14.8801 9.33157C14.8294 9.49328 14.7524 9.64069 14.6481 9.77304C14.5438 9.90588 14.4223 10.0174 14.2827 10.1083C14.1436 10.1992 14.0039 10.26 13.8647 10.2906L12.1348 10.6712L11.9641 11.9482L10.7818 12.2083L11.2525 8.68386L11.2521 8.68444ZM12.1777 10.3396L12.6538 9.68635L13.6389 9.46964C13.6427 9.4688 13.6503 9.4576 13.6605 9.43577C13.6708 9.41394 13.6814 9.38904 13.6923 9.36104C13.7031 9.33257 13.7132 9.30575 13.7231 9.27999C13.7325 9.25433 13.7377 9.23462 13.7394 9.22171L13.7451 9.18833C13.74 9.18545 13.7338 9.17576 13.7259 9.16044C13.709 9.14259 13.6813 9.11957 13.643 9.09137C13.6047 9.06316 13.5813 9.05025 13.5731 9.05204L12.3109 9.32971L12.1783 10.3399L12.1777 10.3396Z" fill="white"/>
<path d="M15.4058 7.77244L18.2318 7.15075C18.3467 7.12548 18.4503 7.1358 18.5424 7.1823C18.6344 7.22879 18.7152 7.29281 18.7848 7.37435C18.8545 7.45588 18.912 7.54659 18.9575 7.64599C19.0031 7.74586 19.0351 7.83667 19.0531 7.91853C19.091 8.09084 19.0846 8.25786 19.0343 8.41946C18.9836 8.58117 18.9066 8.72858 18.8022 8.86093C18.698 8.99377 18.5765 9.10531 18.4369 9.19623C18.2978 9.28705 18.1581 9.34789 18.0188 9.37853L16.289 9.75908L16.1183 11.0361L14.936 11.2962L15.4062 7.77185L15.4058 7.77244ZM16.3314 9.42756L16.8075 8.77434L17.7926 8.55764C17.7964 8.55679 17.804 8.54559 17.8142 8.52377C17.8245 8.50194 17.8351 8.47703 17.8465 8.44893C17.8573 8.42046 17.8674 8.39364 17.8768 8.36798C17.8862 8.34233 17.8914 8.32262 17.8931 8.3097L17.8988 8.27633C17.8937 8.27345 17.8875 8.26376 17.8796 8.24843C17.8627 8.23059 17.835 8.20756 17.7967 8.17936C17.7584 8.15116 17.7349 8.13824 17.7268 8.14003L16.4646 8.41771L16.332 9.42793L16.3314 9.42756Z" fill="white"/>
<path d="M20.0744 8.53916L19.0023 6.98047L20.3196 6.69069L20.7967 7.39266L21.5014 6.4307L22.8187 6.14092L21.2557 8.27928L21.0307 9.95518L19.8484 10.2153L20.0734 8.53937L20.0744 8.53916Z" fill="white"/>
<path d="M25.4063 11.7285V15.8705C25.4063 16.5368 24.9342 17.1125 24.2736 17.2516L2.59399 21.8166V17.6892C2.59399 17.0233 3.0657 16.4476 3.72595 16.3081L25.4063 11.7285Z" fill="#59A4FF"/>
<path d="M11.689 4.69635C11.9172 4.69635 12.1023 4.51379 12.1023 4.2886C12.1023 4.06341 11.9172 3.88086 11.689 3.88086C11.4607 3.88086 11.2756 4.06341 11.2756 4.2886C11.2756 4.51379 11.4607 4.69635 11.689 4.69635Z" fill="white"/>
<path d="M16.3733 4.69635C16.6015 4.69635 16.7866 4.51379 16.7866 4.2886C16.7866 4.06341 16.6015 3.88086 16.3733 3.88086C16.145 3.88086 15.96 4.06341 15.96 4.2886C15.96 4.51379 16.145 4.69635 16.3733 4.69635Z" fill="white"/>
<path d="M14.0332 4.01666C14.2615 4.01666 14.4465 3.83411 14.4465 3.60892C14.4465 3.38373 14.2615 3.20117 14.0332 3.20117C13.8049 3.20117 13.6199 3.38373 13.6199 3.60892C13.6199 3.83411 13.8049 4.01666 14.0332 4.01666Z" fill="white"/>
<path d="M6.9977 18.5989L6.99059 18.5658C6.98427 18.5365 6.97195 18.5073 6.95417 18.4782C6.93639 18.4492 6.91256 18.4378 6.8832 18.4442L5.7772 18.6824C5.6666 18.7062 5.56124 18.701 5.46114 18.6666C5.36104 18.6322 5.26983 18.5805 5.18752 18.5116C5.1052 18.4427 5.03681 18.362 4.98181 18.2696C4.92681 18.1772 4.88956 18.0832 4.86889 17.9873C4.84981 17.8987 4.85393 17.7931 4.88154 17.6692C4.90864 17.5454 4.95229 17.4247 5.01163 17.3055C5.07108 17.1868 5.14504 17.082 5.23363 16.9917C5.32221 16.9013 5.41813 16.845 5.5214 16.8227L8.3425 16.215C8.28457 16.3586 8.2147 16.5053 8.13318 16.6539C8.05114 16.8027 7.95756 16.9539 7.85194 17.1078L6.02676 17.5009C5.9864 17.5096 5.95727 17.545 5.93977 17.6063C5.92238 17.6682 5.91719 17.7154 5.9243 17.7484L5.93029 17.7762C5.93108 17.7799 5.94022 17.7867 5.95761 17.7961C5.97511 17.8061 5.98826 17.8137 5.99718 17.8194C6.01502 17.8309 6.03956 17.8405 6.06953 17.8472C6.10013 17.8543 6.11721 17.8572 6.12088 17.8564L7.17185 17.63C7.28979 17.6046 7.39717 17.6116 7.49439 17.6505C7.59161 17.6893 7.67627 17.7462 7.74848 17.8217C7.82058 17.8967 7.88051 17.9814 7.92765 18.0755C7.97479 18.1695 8.00777 18.259 8.02606 18.3439L8.03317 18.3769C8.05384 18.4728 8.05384 18.5798 8.03277 18.6984C8.01223 18.8169 7.97561 18.9296 7.92367 19.0373C7.87173 19.145 7.8054 19.2394 7.72414 19.3205C7.64342 19.4015 7.55299 19.4528 7.4534 19.4743L4.63177 20.0821C4.64221 20.0415 4.66719 19.9741 4.70683 19.8805C4.74646 19.787 4.78965 19.6921 4.83617 19.5949C4.8828 19.4982 4.92664 19.4114 4.96831 19.3349C5.00999 19.2585 5.03601 19.2189 5.04702 19.2165L6.92775 18.8114C6.98331 18.7994 7.01168 18.7758 7.014 18.7407C7.0158 18.7058 7.01295 18.6696 7.00504 18.6329L6.99793 18.5999L6.9977 18.5989Z" fill="white"/>
<path d="M8.65759 16.145L9.71956 15.9162L9.46409 17.7654L9.90299 17.0631L10.7438 16.882L10.9142 15.6589L11.9651 15.4325L11.5289 18.5942L10.4779 18.8206L10.6331 17.6874L9.43855 17.9448L9.28335 19.0779L8.22137 19.3067L8.65759 16.145Z" fill="white"/>
<path d="M12.2853 15.3637L13.3472 15.135L12.911 18.2967L11.8491 18.5255L12.2853 15.3637Z" fill="white"/>
<path d="M16.8211 14.3859C16.8066 14.4433 16.7775 14.5197 16.7346 14.6157C16.6916 14.7116 16.6448 14.8078 16.5942 14.9037C16.5436 14.9996 16.4921 15.0842 16.4403 15.1568C16.3886 15.2299 16.3477 15.2694 16.3184 15.2757L14.6148 15.6427L14.4864 16.5792L14.9025 15.957L16.1804 15.6817L15.5503 16.5991L14.4496 16.8362L14.3994 17.1942L16.5181 16.7378C16.516 16.7459 16.51 16.7637 16.5005 16.791C16.491 16.8182 16.4817 16.846 16.4725 16.8749C16.4634 16.9037 16.4539 16.931 16.444 16.9562C16.434 16.9813 16.4274 16.9965 16.4245 17.0009C16.401 17.0521 16.3666 17.1138 16.3221 17.1848C16.2777 17.2564 16.2337 17.3245 16.1897 17.39C16.1456 17.4554 16.1066 17.511 16.072 17.5568C16.0375 17.6027 16.0185 17.6265 16.0148 17.6273L13.2325 18.2266L13.6682 15.065L16.8211 14.3859Z" fill="white"/>
<path d="M16.689 17.4825L17.1252 14.3208L18.1814 14.0933L17.8553 16.4496L19.6087 16.0719C19.6124 16.0712 19.5982 16.1071 19.5655 16.1794C19.5329 16.2523 19.4903 16.3371 19.4385 16.4355C19.3861 16.5335 19.3307 16.6326 19.271 16.7321C19.2112 16.8317 19.1601 16.9074 19.1175 16.9594L16.6895 17.4824L16.689 17.4825Z" fill="white"/>
<path d="M23.2573 14.6836C23.1501 14.9574 23.0347 15.1956 22.9104 15.3979C22.7862 15.6002 22.642 15.7739 22.4786 15.9193C22.3151 16.0642 22.1268 16.1854 21.9143 16.2811C21.7014 16.3774 21.4512 16.456 21.1639 16.5179L19.7869 16.8145L20.2226 13.6529L22.6286 13.1346C22.8498 13.087 23.0233 13.1132 23.1491 13.2134C23.2748 13.3136 23.3581 13.458 23.3985 13.6456C23.4294 13.7893 23.4341 13.9534 23.4118 14.1375C23.3894 14.3217 23.3381 14.5033 23.2572 14.6831L23.2573 14.6836ZM21.1855 14.2271L20.9701 15.7786L21.1137 15.7476C21.2133 15.7262 21.3177 15.6834 21.4278 15.6191C21.5373 15.5549 21.6428 15.479 21.7436 15.392C21.8443 15.3045 21.935 15.2109 22.0159 15.1107C22.0964 15.0105 22.1556 14.9138 22.1937 14.8206C22.2094 14.7865 22.2273 14.7475 22.2467 14.705C22.2665 14.6623 22.2805 14.6149 22.2884 14.5627C22.2978 14.4993 22.3074 14.4369 22.3181 14.377C22.3282 14.3172 22.3281 14.2629 22.3178 14.2152C22.3042 14.1523 22.2793 14.1028 22.2424 14.0664C22.2055 14.0299 22.1522 14.0194 22.082 14.0346L21.1861 14.2275L21.1855 14.2271Z" fill="white"/>
</g>
<defs>
<clipPath id="clip0_653_46020">
<rect width="28" height="24" fill="white"/>
</clipPath>
</defs>
</svg>
