<svg width="192" height="70" viewBox="0 0 192 70" fill="none" xmlns="http://www.w3.org/2000/svg">
<path d="M46.0836 52.2434H81.4753L65.8631 70H0L53.943 18.2205L18.6008 17.9734L34.3346 0.133071L38.1255 0.12547C37.7034 1.22813 37.4106 2.44106 37.2814 3.72243C36.711 9.40684 39.5894 14.3498 43.711 14.7604C45.9316 14.981 48.0608 13.8403 49.6388 11.8441C47.8175 11.3156 46.4753 9.62737 46.4753 7.62357C46.4753 5.19771 48.4449 3.22813 50.8707 3.22813C51.3536 3.22813 51.8289 3.30418 52.2624 3.45247C52.2319 2.26616 52.057 1.13308 51.7491 0.095057H54.4905C54.0608 1.20152 53.7642 2.42586 53.6312 3.71863C53.0646 9.40304 55.943 14.346 60.0608 14.7567C62.2852 14.9772 64.4144 13.8365 65.9924 11.8403C64.1711 11.3118 62.8289 9.62357 62.8289 7.61976C62.8289 5.19391 64.7985 3.22433 67.2243 3.22433C67.7072 3.22433 68.1787 3.30037 68.616 3.44866C68.5856 2.25094 68.4068 1.11026 68.0913 0.0608263L100.3 0L46.0798 52.2357L46.0836 52.2434Z" fill="white"/>
<path d="M87.1027 20.9338H96.4943L87.057 46.854H77.6654L87.1027 20.9338Z" fill="white"/>
<path d="M99.3308 20.9347H121.779C122.692 20.9347 123.46 21.1856 124.076 21.6913C124.696 22.197 125.202 22.8168 125.593 23.5506C125.985 24.2845 126.27 25.0677 126.449 25.8966C126.627 26.7293 126.719 27.4708 126.719 28.121C126.719 29.4898 126.392 30.7445 125.741 31.8852C125.087 33.0259 124.259 34.0145 123.247 34.8434C122.236 35.6761 121.129 36.3187 119.92 36.775C118.715 37.2312 117.555 37.4594 116.449 37.4594H102.707L99.2852 46.851H89.8936L99.3346 20.9308L99.3308 20.9347ZM103.586 35.0183L108.281 30.8624H116.106C116.137 30.8624 116.213 30.7902 116.327 30.6419C116.441 30.4936 116.563 30.3225 116.692 30.1286C116.821 29.9309 116.943 29.7445 117.061 29.5658C117.175 29.3871 117.247 29.2464 117.281 29.1514L117.38 28.908C117.346 28.8776 117.316 28.794 117.281 28.6647C117.183 28.5012 117.011 28.2807 116.768 28.0031C116.525 27.7255 116.369 27.5886 116.304 27.5886H106.278L103.589 35.0221L103.586 35.0183Z" fill="white"/>
<path d="M132.342 20.9347H154.791C155.704 20.9347 156.472 21.1856 157.091 21.6913C157.711 22.197 158.217 22.8168 158.609 23.5506C159 24.2845 159.285 25.0677 159.464 25.8966C159.643 26.7293 159.734 27.4708 159.734 28.121C159.734 29.4898 159.407 30.7445 158.757 31.8852C158.103 33.0259 157.274 34.0145 156.263 34.8434C155.251 35.6761 154.145 36.3187 152.936 36.775C151.73 37.2312 150.571 37.4594 149.464 37.4594H135.723L132.301 46.851H122.909L132.346 20.9308L132.342 20.9347ZM136.597 35.0183L141.293 30.8624H149.118C149.148 30.8624 149.225 30.7902 149.339 30.6419C149.453 30.4936 149.574 30.3225 149.707 30.1286C149.837 29.9309 149.958 29.7445 150.072 29.5658C150.187 29.3871 150.259 29.2464 150.293 29.1514L150.392 28.908C150.358 28.8776 150.327 28.794 150.293 28.6647C150.194 28.5012 150.023 28.2807 149.78 28.0031C149.536 27.7255 149.38 27.5886 149.316 27.5886H139.289L136.601 35.0221L136.597 35.0183Z" fill="white"/>
<path d="M166.429 34.5278L160.905 20.9308H171.369L173.813 27.0449L180.756 20.9308H191.22L175.813 34.5278L171.315 46.851H161.924L166.422 34.5278H166.429Z" fill="white"/>
</svg>
