<svg width="428" height="293" viewBox="0 0 428 293" fill="none" xmlns="http://www.w3.org/2000/svg">
<circle cx="286.5" cy="141.5" r="141.5" fill="#FFFFD4"/>
<path fill-rule="evenodd" clip-rule="evenodd" d="M282.169 70.944C283.384 66.0336 283.305 61.3049 283.45 56.3241C283.479 55.3514 282.71 54.5428 281.734 54.5135C280.757 54.4842 279.942 55.2518 279.914 56.2245C279.776 60.9474 279.887 65.4418 278.734 70.1061C278.5 71.0495 279.081 72.0046 280.029 72.2331C280.977 72.4675 281.936 71.8874 282.169 70.944Z" fill="black"/>
<path fill-rule="evenodd" clip-rule="evenodd" d="M292.494 80.4595C300.739 72.9709 308.507 63.3376 313.937 53.6105C314.411 52.7608 314.102 51.6885 313.248 51.2197C312.394 50.7509 311.317 51.0557 310.843 51.9053C305.593 61.3101 298.08 70.627 290.107 77.8637C289.387 78.52 289.337 79.6334 289.995 80.3482C290.654 81.0631 291.774 81.1158 292.494 80.4595Z" fill="black"/>
<path fill-rule="evenodd" clip-rule="evenodd" d="M294.583 88.6399C302.123 89.8763 309.896 87.7668 316.752 84.7842C317.647 84.3916 318.055 83.3545 317.664 82.4697C317.273 81.579 316.228 81.1747 315.334 81.5614C309.089 84.2803 302.027 86.2961 295.159 85.171C294.195 85.0128 293.284 85.6632 293.126 86.6183C292.966 87.5734 293.62 88.4817 294.583 88.6399Z" fill="black"/>
<path opacity="0.3" d="M133.999 267.072C268.204 267.072 376.999 266.175 376.999 265.067C376.999 263.96 268.204 263.062 133.999 263.062C-0.205429 263.062 -109 263.96 -109 265.067C-109 266.175 -0.205429 267.072 133.999 267.072Z" fill="#0D1F37"/>
<path d="M199.511 238.619C199.511 224.02 209.757 212.177 222.405 212.177H209.16C196.513 212.177 186.266 224.02 186.266 238.619C186.266 253.218 196.513 265.067 209.16 265.067H222.405C209.757 265.067 199.511 253.224 199.511 238.619Z" fill="#231F20"/>
<path d="M221.896 212.177C234.825 212.177 245.306 224.02 245.306 238.619C245.306 253.218 234.825 265.067 221.896 265.067C208.966 265.067 198.485 253.224 198.485 238.619C198.485 224.013 208.966 212.177 221.896 212.177Z" fill="#939598"/>
<path d="M-5.73382 212.177C7.1954 212.177 17.6769 224.02 17.6769 238.619C17.6769 253.218 7.1954 265.067 -5.73382 265.067C-18.663 265.067 -29.1445 253.224 -29.1445 238.619C-29.1445 224.013 -18.663 212.177 -5.73382 212.177Z" fill="#939598"/>
<path d="M-43.9383 241.696H357.565C363.775 241.696 368.804 236.667 368.804 230.457V196.263H-65.5317V234.776C-65.5317 238.598 -47.7675 241.703 -43.9383 241.703V241.696Z" fill="#0D1F37"/>
<path d="M-55.2979 81.0068H62.6208V236.52H-54.5267C-57.759 236.52 -76.6768 233.549 -76.6768 226.306V174.019C-76.6768 122.671 -63.6 81.0001 -55.2979 81.0001V81.0068Z" fill="url(#paint0_linear_145_658)"/>
<path d="M62.6204 151.896V81.0067H-55.2984C-62.3665 81.0067 -72.895 111.224 -75.8657 151.896H62.6204Z" fill="url(#paint1_linear_145_658)"/>
<path d="M22.8135 174.026C22.8135 139.081 24.3559 108.635 25.7374 92.7421C25.8983 90.8913 24.4364 89.3087 22.5788 89.3087H-52.8573C-59.5432 89.3087 -70.0649 128.217 -70.0649 176.165V220.271H22.8135V174.026Z" fill="#6D6E71"/>
<g style="mix-blend-mode:multiply">
<path d="M25.7372 92.7421C25.8981 90.8913 24.4362 89.3087 22.5786 89.3087H-52.8574C-55.6672 89.3087 -59.1611 96.2159 -62.2593 107.77C-7.02846 94.0833 11.346 111.164 24.0406 119.72C24.5502 108.662 25.1604 99.4213 25.7439 92.7488L25.7372 92.7421Z" fill="#939598"/>
</g>
<g style="mix-blend-mode:multiply">
<path d="M-70.0649 190.845V220.271H22.8135V174.026C22.8135 173.456 22.8135 172.886 22.8135 172.316C-3.1187 182.16 -35.0461 188.786 -70.0649 190.851V190.845Z" fill="#BCBEC0"/>
</g>
<path d="M41.9327 236.519C39.1229 236.519 24.6245 234.326 20.574 229.129H-69.3672C-66.1751 234.883 -50.4562 237.291 -47.519 237.291H49.7653V236.519H41.9327Z" fill="#0D1F37"/>
<path d="M22.8134 203.506H-60.5156V220.271H22.8134V203.506Z" fill="#808285"/>
<path d="M320.823 212.177C333.752 212.177 344.234 224.02 344.234 238.619C344.234 253.218 333.752 265.067 320.823 265.067C307.894 265.067 297.412 253.224 297.412 238.619C297.412 224.013 307.894 212.177 320.823 212.177Z" fill="#939598"/>
<path d="M321.339 212.177C333.987 212.177 344.233 224.02 344.233 238.619C344.233 253.218 333.987 265.067 321.339 265.067C308.692 265.067 298.445 253.224 298.445 238.619C298.445 224.013 308.692 212.177 321.339 212.177Z" fill="#414042"/>
<path d="M321.339 218.956C330.748 218.956 338.366 227.761 338.366 238.618C338.366 249.475 330.741 258.287 321.339 258.287C311.937 258.287 304.312 249.482 304.312 238.618C304.312 227.755 311.937 218.956 321.339 218.956Z" fill="#231F20"/>
<g style="mix-blend-mode:multiply">
<path d="M321.339 238.035C326.865 238.035 331.988 239.142 336.233 241.04C336.327 240.248 336.394 239.444 336.394 238.619C336.394 229.016 329.654 221.23 321.332 221.23C313.01 221.23 306.271 229.016 306.271 238.619C306.271 239.444 306.338 240.242 306.431 241.04C310.676 239.142 315.807 238.035 321.326 238.035H321.339Z" fill="#D1D3D4"/>
</g>
<path d="M337.226 238.618C337.226 228.774 330.499 220.753 322.063 220.311C321.822 220.297 321.58 220.271 321.332 220.271C317.818 220.271 314.586 221.605 311.95 223.832C308.007 227.171 305.439 232.543 305.439 238.618C305.439 238.866 305.466 239.108 305.473 239.349C305.553 241.763 306.036 244.05 306.847 246.136C307.981 249.039 309.751 251.541 311.95 253.405C314.579 255.632 317.818 256.966 321.332 256.966C321.58 256.966 321.822 256.939 322.063 256.926C324.799 256.785 327.348 255.846 329.547 254.304C333.973 251.206 336.971 245.7 337.192 239.349C337.199 239.108 337.226 238.866 337.226 238.618ZM336.166 237.887H324.062L334.899 231.631C335.643 233.555 336.079 235.668 336.159 237.887H336.166ZM334.322 230.276L323.331 236.62L330.144 224.817C331.847 226.273 333.282 228.123 334.315 230.276H334.322ZM328.984 223.919L322.07 235.889V221.498C324.591 221.639 326.945 222.504 328.984 223.919ZM320.608 255.732C318.087 255.591 315.733 254.726 313.694 253.311L320.608 241.341V255.732ZM313.694 223.919C315.733 222.504 318.087 221.639 320.608 221.498V235.889L313.694 223.919ZM312.527 224.817L319.341 236.62L308.349 230.276C309.389 228.123 310.817 226.273 312.521 224.817H312.527ZM318.61 237.887H306.505C306.586 235.668 307.022 233.555 307.766 231.631L318.603 237.887H318.61ZM306.505 239.349H318.61L307.773 245.606C307.028 243.681 306.586 241.569 306.505 239.349ZM308.349 246.961L319.341 240.617L312.527 252.419C310.824 250.964 309.389 249.113 308.356 246.961H308.349ZM322.063 255.739V241.348L328.977 253.318C326.938 254.733 324.585 255.598 322.063 255.739ZM330.144 252.419L323.331 240.617L334.315 246.961C333.276 249.113 331.847 250.964 330.144 252.419ZM334.899 245.606L324.062 239.349H336.166C336.086 241.569 335.643 243.681 334.899 245.606Z" fill="#F1F2F2"/>
<path d="M321.339 230.725C325.115 230.725 328.179 234.259 328.179 238.618C328.179 242.977 325.121 246.518 321.339 246.518C317.557 246.518 314.499 242.984 314.499 238.618C314.499 234.253 317.557 230.725 321.339 230.725Z" fill="#F1F2F2"/>
<path d="M321.339 232.207C324.411 232.207 326.892 235.077 326.892 238.618C326.892 242.159 324.404 245.036 321.339 245.036C318.274 245.036 315.787 242.166 315.787 238.618C315.787 235.071 318.274 232.207 321.339 232.207Z" fill="#808285"/>
<g style="mix-blend-mode:multiply">
<path d="M321.339 237.431C323.378 237.431 325.269 237.78 326.872 238.37C326.758 234.943 324.337 232.207 321.339 232.207C318.342 232.207 315.921 234.95 315.807 238.37C317.409 237.78 319.3 237.431 321.339 237.431Z" fill="#808285"/>
</g>
<path d="M321.339 235.292C322.935 235.292 324.223 236.781 324.223 238.625C324.223 240.469 322.928 241.958 321.339 241.958C319.75 241.958 318.456 240.469 318.456 238.625C318.456 236.781 319.75 235.292 321.339 235.292Z" fill="white"/>
<path d="M93.2003 212.177C106.129 212.177 116.611 224.02 116.611 238.619C116.611 253.218 106.129 265.067 93.2003 265.067C80.271 265.067 69.7896 253.224 69.7896 238.619C69.7896 224.013 80.271 212.177 93.2003 212.177Z" fill="#939598"/>
<path d="M93.7098 212.177C106.357 212.177 116.604 224.02 116.604 238.619C116.604 253.218 106.357 265.067 93.7098 265.067C81.0622 265.067 70.8154 253.224 70.8154 238.619C70.8154 224.013 81.0622 212.177 93.7098 212.177Z" fill="#414042"/>
<path d="M93.7097 218.956C103.118 218.956 110.736 227.761 110.736 238.618C110.736 249.475 103.112 258.287 93.7097 258.287C84.3079 258.287 76.6831 249.482 76.6831 238.618C76.6831 227.755 84.3079 218.956 93.7097 218.956Z" fill="#231F20"/>
<g style="mix-blend-mode:multiply">
<path d="M93.7095 238.035C99.2353 238.035 104.359 239.142 108.604 241.04C108.697 240.248 108.765 239.444 108.765 238.619C108.765 229.016 102.025 221.23 93.7028 221.23C85.3806 221.23 78.6411 229.016 78.6411 238.619C78.6411 239.444 78.7082 240.242 78.8021 241.04C83.047 239.142 88.177 238.035 93.6961 238.035H93.7095Z" fill="#D1D3D4"/>
</g>
<path d="M109.603 238.618C109.603 228.774 102.877 220.753 94.4406 220.311C94.1992 220.297 93.9578 220.271 93.7097 220.271C90.1957 220.271 86.9634 221.605 84.3279 223.832C80.3848 227.171 77.8164 232.543 77.8164 238.618C77.8164 238.866 77.8432 239.108 77.8499 239.349C77.9304 241.763 78.4132 244.05 79.2247 246.136C80.358 249.039 82.1284 251.541 84.3279 253.405C86.9567 255.632 90.1957 256.966 93.7097 256.966C93.9578 256.966 94.1992 256.939 94.4406 256.926C97.1766 256.785 99.725 255.846 101.925 254.304C106.351 251.206 109.348 245.7 109.569 239.349C109.576 239.108 109.603 238.866 109.603 238.618ZM108.543 237.887H96.439L107.276 231.631C108.02 233.555 108.456 235.668 108.537 237.887H108.543ZM106.699 230.276L95.708 236.62L102.521 224.817C104.225 226.273 105.66 228.123 106.693 230.276H106.699ZM101.361 223.919L94.4473 235.889V221.498C96.9688 221.639 99.3226 222.504 101.361 223.919ZM92.9854 255.732C90.464 255.591 88.1101 254.726 86.0715 253.311L92.9854 241.341V255.732ZM86.0715 223.919C88.1101 222.504 90.464 221.639 92.9854 221.498V235.889L86.0715 223.919ZM84.9046 224.817L91.718 236.62L80.7268 230.276C81.7662 228.123 83.1946 226.273 84.8979 224.817H84.9046ZM90.987 237.887H78.8826C78.9631 235.668 79.399 233.555 80.1434 231.631L90.9803 237.887H90.987ZM78.8826 239.349H90.987L80.1501 245.606C79.4057 243.681 78.9631 241.569 78.8826 239.349ZM80.7268 246.961L91.718 240.617L84.9046 252.419C83.2013 250.964 81.7662 249.113 80.7335 246.961H80.7268ZM94.4406 255.739V241.348L101.355 253.318C99.3159 254.733 96.962 255.598 94.4406 255.739ZM102.521 252.419L95.708 240.617L106.693 246.961C105.653 249.113 104.225 250.964 102.521 252.419ZM107.276 245.606L96.439 239.349H108.543C108.463 241.569 108.02 243.681 107.276 245.606Z" fill="#F1F2F2"/>
<path d="M93.7097 230.725C97.4852 230.725 100.55 234.259 100.55 238.618C100.55 242.977 97.4919 246.518 93.7097 246.518C89.9275 246.518 86.8696 242.984 86.8696 238.618C86.8696 234.253 89.9275 230.725 93.7097 230.725Z" fill="#F1F2F2"/>
<path d="M93.7098 232.207C96.7812 232.207 99.2624 235.077 99.2624 238.618C99.2624 242.159 96.7745 245.036 93.7098 245.036C90.6452 245.036 88.1572 242.166 88.1572 238.618C88.1572 235.071 90.6452 232.207 93.7098 232.207Z" fill="#808285"/>
<g style="mix-blend-mode:multiply">
<path d="M93.7097 237.431C95.7483 237.431 97.6394 237.78 99.2422 238.37C99.1282 234.943 96.7073 232.207 93.7097 232.207C90.7121 232.207 88.2912 234.95 88.1772 238.37C89.78 237.78 91.6711 237.431 93.7097 237.431Z" fill="#808285"/>
</g>
<path d="M93.7098 235.292C95.3058 235.292 96.5934 236.781 96.5934 238.625C96.5934 240.469 95.2991 241.958 93.7098 241.958C92.1205 241.958 90.8262 240.469 90.8262 238.625C90.8262 236.781 92.1205 235.292 93.7098 235.292Z" fill="white"/>
<path d="M368.435 168.514C365.652 159.025 330.312 147.745 320.065 145.264C320.065 145.264 277.857 81.0067 262.386 81.0067H33.9925C32.6781 81.0067 29.1909 122.678 29.1909 174.026V226.313C29.1909 233.549 48.1086 236.526 51.3409 236.526H65.048C65.5309 217.515 78.2052 203.251 94.4271 203.251C109.73 203.251 119.219 217.521 119.581 236.526H292.724C293.207 217.515 305.881 203.251 322.103 203.251C337.406 203.251 346.896 217.521 347.258 236.526H363.594C363.594 236.526 363.641 236.513 363.661 236.499C365.934 236.358 367.859 234.722 368.294 232.462C373.022 208.2 370.937 176.997 368.449 168.514H368.435Z" fill="#2967B0"/>
<path d="M279.044 151.896C307.94 151.896 351.235 165.094 370.481 182.563C369.978 176.219 369.227 171.21 368.436 168.507C365.653 159.018 330.312 147.738 320.065 145.257C320.065 145.257 277.857 81.0001 262.386 81.0001H33.9927C32.8728 81.0001 30.177 111.217 29.4058 151.89H279.051L279.044 151.896Z" fill="#59A4FF"/>
<path d="M41.993 183.22H344.234C344.234 179.565 282.692 176.601 193.113 176.601H104.292C53.4805 176.601 41.9863 179.565 41.9863 183.22H41.993Z" fill="#59A4FF"/>
<path d="M37.2046 124.737C37.3789 123.49 38.2105 122.678 39.3103 122.678C39.3103 122.678 35.5951 137.908 56.5649 137.908H182.242C222.821 137.908 216.168 122.678 217.342 122.678C218.515 122.678 219.682 123.899 219.857 125.321C220.581 131.41 218.757 145.908 185.052 145.908H51.8975C35.7561 145.908 36.4267 130.41 37.2113 124.73L37.2046 124.737Z" fill="#2967B0"/>
<g style="mix-blend-mode:multiply">
<path d="M215.37 95.6995C214.492 94.5528 213.124 93.748 211.662 93.748H45.5334C42.053 93.748 39.0085 95.0021 36.876 97.1681C38.3379 92.3599 42.6029 89.3087 47.9275 89.3087H210.877C213.345 89.3087 215.612 91.6826 215.471 94.1102L215.377 95.6995H215.37Z" fill="#A7A9AC"/>
</g>
<path d="M352.703 236.52C352.374 213.545 340.974 196.257 322.519 196.257C302.964 196.257 287.701 213.545 287.259 236.52H292.718C293.2 217.508 305.875 203.244 322.097 203.244C337.4 203.244 346.889 217.515 347.251 236.52H352.71H352.703Z" fill="#0D1F37"/>
<path d="M125.033 236.52C124.705 213.545 113.305 196.257 94.8496 196.257C75.2948 196.257 60.032 213.545 59.5894 236.52H65.0481C65.5309 217.508 78.2052 203.244 94.4271 203.244C109.73 203.244 119.219 217.515 119.581 236.52H125.04H125.033Z" fill="#0D1F37"/>
<path d="M229.091 123.577C229.507 130.014 229.969 137.21 230.331 145.264H313.091C290.344 111.794 272.781 92.6014 264.921 92.6014H231.928C231.17 92.6014 230.553 92.8697 230.043 93.4129C227.347 96.2898 228.045 107.147 229.098 123.577H229.091Z" fill="#6D6E71"/>
<path d="M230.332 145.264H301.315V129.411H229.46C229.762 134.293 230.07 139.557 230.332 145.264Z" fill="#A97C50"/>
<path d="M230.332 145.264H289.875L291.216 140.697C292.456 136.472 289.284 132.248 284.885 132.248H229.634C229.882 136.318 230.124 140.65 230.332 145.264Z" fill="#603913"/>
<path d="M282.88 145.271C283.893 137.914 279.185 132.248 271.52 132.248C263.855 132.248 255.868 137.907 252.623 145.271H255.768C258.477 139.638 264.673 135.359 270.622 135.359C276.57 135.359 280.292 139.638 279.742 145.271H282.887H282.88Z" fill="#726658"/>
<path d="M30.633 209.857H29.1241L29.1241 176.91H30.633C33.7111 176.91 36.2124 179.411 36.2124 182.489V204.277C36.2124 207.355 33.7111 209.857 30.633 209.857Z" fill="#BE1E2D"/>
<path d="M31.0618 206.557H31.9202C32.7905 206.557 33.4961 205.851 33.4961 204.981V187.156C33.4961 186.286 32.7905 185.58 31.9202 185.58H31.0618C30.1914 185.58 29.4859 186.286 29.4859 187.156L29.4859 204.981C29.4859 205.851 30.1914 206.557 31.0618 206.557Z" fill="#ED1C24"/>
<path opacity="0.5" d="M33.1275 197.893C34.0328 197.893 34.7638 197.162 34.7638 196.257V182.026C34.7638 181.121 34.0328 180.39 33.1275 180.39C32.2222 180.39 31.4912 181.121 31.4912 182.026V196.257C31.4912 197.162 32.2222 197.893 33.1275 197.893Z" fill="white"/>
<path d="M28.0845 176.903H29.1306V209.85H28.0845C25.9587 209.85 24.2285 208.12 24.2285 205.994V180.752C24.2285 178.626 25.9587 176.896 28.0845 176.896V176.903Z" fill="#ED1C24"/>
<path d="M26.9846 190.281H26.3743C25.7558 190.281 25.2544 190.783 25.2544 191.401V204.056C25.2544 204.674 25.7558 205.176 26.3743 205.176H26.9846C27.6031 205.176 28.1045 204.674 28.1045 204.056V191.401C28.1045 190.783 27.6031 190.281 26.9846 190.281Z" fill="#BE1E2D"/>
<path opacity="0.5" d="M27.4743 193.554C26.7433 193.554 26.1465 192.957 26.1465 192.226V180.692C26.1465 179.961 26.7433 179.364 27.4743 179.364C28.2052 179.364 28.802 179.961 28.802 180.692V192.226C28.802 192.957 28.2052 193.554 27.4743 193.554Z" fill="white"/>
<path d="M359.637 199.248V201.326C359.637 202.272 360.402 203.036 361.347 203.036H371.078C371.111 201.179 371.118 199.341 371.104 197.544H361.347C360.402 197.544 359.637 198.309 359.637 199.254V199.248Z" fill="#F7941D"/>
<path d="M369.112 202.319H362.051C361.193 202.319 360.495 201.622 360.495 200.763V199.804C360.495 198.946 361.193 198.248 362.051 198.248H369.206C370.065 198.248 370.762 198.946 370.762 199.804V200.669C370.762 201.581 370.024 202.319 369.112 202.319Z" fill="#F15A29"/>
<path d="M370.434 182.027H364.304C361.723 182.027 359.63 184.119 359.63 186.701V194.165C359.63 195.318 360.569 196.257 361.723 196.257H371.078C371.01 191.087 370.776 186.245 370.427 182.027H370.434Z" fill="#E6E7E8"/>
<path d="M365.827 195.505H363.842C363.171 195.505 362.621 194.962 362.621 194.285V190.852C362.621 189.349 363.842 188.136 365.337 188.136H368.75C369.542 188.136 370.186 188.779 370.186 189.571V191.14C370.186 193.547 368.234 195.499 365.827 195.499V195.505Z" fill="#D1D3D4"/>
<path d="M365.498 191.394H366.357C367.295 191.394 368.06 190.63 368.06 189.691V184.93C368.06 183.991 367.295 183.226 366.357 183.226H363.855C362.051 183.226 360.589 184.688 360.589 186.492C360.589 189.202 362.789 191.401 365.498 191.401V191.394Z" fill="white"/>
<path opacity="0.5" d="M255.097 114.228C261.065 114.228 272.627 125.3 287.796 145.271H313.091C290.344 111.801 272.781 92.6014 264.921 92.6014H231.928C231.17 92.6014 230.553 92.8697 230.043 93.4129C227.897 95.6996 227.904 103.056 228.521 114.228H255.097Z" fill="white"/>
<g style="mix-blend-mode:multiply">
<path d="M235.629 163.826C238.114 163.826 240.129 162.418 240.129 160.681C240.129 158.944 238.114 157.536 235.629 157.536C233.144 157.536 231.129 158.944 231.129 160.681C231.129 162.418 233.144 163.826 235.629 163.826Z" fill="#939598"/>
</g>
<path d="M238.956 162.452H231.183C230.204 162.452 229.406 161.654 229.406 160.675C229.406 159.695 230.204 158.897 231.183 158.897H238.956C239.935 158.897 240.733 159.695 240.733 160.675C240.733 161.654 239.935 162.452 238.956 162.452Z" fill="#939598"/>
<path d="M240.062 162.452H232.29C231.311 162.452 230.513 161.654 230.513 160.675C230.513 159.695 231.311 158.897 232.29 158.897H240.062C241.041 158.897 241.839 159.695 241.839 160.675C241.839 161.654 241.041 162.452 240.062 162.452Z" fill="white"/>
<g style="mix-blend-mode:multiply">
<path d="M320.99 147.061L308.899 135.278C306.425 132.864 304.42 132.918 304.42 135.392V143.084L298.599 137.418C298.009 136.848 297.492 136.633 297.171 136.754C296.956 136.834 296.822 137.069 296.822 137.465C296.822 137.498 296.828 137.538 296.835 137.579C296.835 137.612 296.822 137.639 296.822 137.672V137.766C296.822 138.859 297.714 140.616 298.807 141.683L304.42 147.148V148.328C304.42 149.361 305.258 151.017 306.291 152.023L314.975 160.48C316.195 161.673 323.21 166.723 323.21 164.094V151.433C323.21 150.213 322.217 148.255 320.997 147.068L320.99 147.061Z" fill="#939598"/>
</g>
<path d="M307.176 135.312H298.022C297.141 135.312 296.426 136.027 296.426 136.908V137.773C296.426 138.655 297.141 139.37 298.022 139.37H307.176C308.057 139.37 308.772 138.655 308.772 137.773V136.908C308.772 136.027 308.057 135.312 307.176 135.312Z" fill="#414042"/>
<path d="M305.962 138.867H298.203C297.224 138.867 296.426 138.069 296.426 137.089C296.426 136.11 297.224 135.312 298.203 135.312H305.962C306.941 135.312 307.739 136.11 307.739 137.089C307.739 138.069 306.941 138.867 305.962 138.867Z" fill="#A7A9AC"/>
<path d="M305.506 135.312H298.203C297.224 135.312 296.426 136.11 296.426 137.089H303.729C304.708 137.089 305.506 136.291 305.506 135.312Z" fill="#F1F2F2"/>
<path d="M311.964 142.427H303.34V127.62C303.34 125.146 305.345 123.141 307.82 123.141H317.986C319.206 123.141 320.199 124.133 320.199 125.354V138.015C320.199 140.643 313.184 142.427 311.964 142.427Z" fill="#414042"/>
<path d="M310.241 142.427H303.28C302.247 142.427 301.409 141.589 301.409 140.556V127.62C301.409 125.146 303.414 123.141 305.888 123.141H316.055C317.275 123.141 318.268 124.133 318.268 125.354V138.015C318.268 140.442 312.668 142.427 310.241 142.427Z" fill="#A7A9AC"/>
<path d="M310.187 141.83H303.756C302.804 141.83 302.026 141.053 302.026 140.094V128.063C302.026 125.763 303.877 123.892 306.163 123.892H315.559C316.685 123.892 317.604 124.811 317.604 125.951V137.726C317.604 139.986 312.427 141.83 310.187 141.83Z" fill="#67DEDC"/>
<path opacity="0.5" d="M315.559 123.892H306.163C303.877 123.892 302.026 125.756 302.026 128.063V136.352C305.714 132.449 311.75 130.625 317.604 130.162V125.944C317.604 124.804 316.692 123.885 315.559 123.885V123.892Z" fill="white"/>
<path d="M-25.4161 176.165V219.969H23.2562V167.448C23.2562 130.591 24.1146 113.706 25.4893 92.6352C25.5966 90.9721 24.2688 89.5638 22.599 89.584L20.0574 89.6108H-13.922C-20.447 89.6108 -25.4229 129.223 -25.4229 176.165H-25.4161Z" fill="#231F20"/>
<path d="M-27.2404 176.165V219.969H21.4319V167.447C21.4319 128.874 22.639 117.045 23.7388 90.1068C23.7522 89.8386 23.5377 89.6106 23.2627 89.6106H-15.7463C-22.2712 89.6106 -27.2471 129.223 -27.2471 176.165H-27.2404Z" fill="#CAE2FF"/>
<path d="M12.5468 135.071H-13.1105C-15.8599 135.071 -17.9924 132.663 -17.6571 129.927L-14.7266 106.074C-14.4449 103.774 -12.4935 102.05 -10.1799 102.05H12.5535C15.0817 102.05 17.1337 104.102 17.1337 106.63V130.484C17.1337 133.012 15.0817 135.064 12.5535 135.064L12.5468 135.071Z" fill="#709AA3"/>
<path opacity="0.5" d="M-2.91742 119.392C-2.63577 117.092 -0.684294 115.368 1.62928 115.368H17.1269V106.63C17.1269 104.102 15.0748 102.05 12.5467 102.05H-10.1867C-12.5003 102.05 -14.4518 103.774 -14.7334 106.074L-17.664 129.927C-17.9993 132.656 -15.8667 135.071 -13.1173 135.071H-4.84204L-2.91742 119.399V119.392Z" fill="white"/>
<path d="M374.531 232.583C374.069 234.937 371.99 236.627 369.582 236.627H347.238C346.399 223.469 343.308 214.101 335.033 207.536H372.647C375.155 207.536 377.14 209.655 376.992 212.156C376.583 219.084 375.805 226.078 374.538 232.576L374.531 232.583Z" fill="#231F20"/>
<path opacity="0.2" d="M372.647 207.536H344.233C344.233 207.536 344.267 207.563 344.28 207.576C347.446 210.091 351.302 211.586 355.345 211.586H376.959C376.798 209.346 374.954 207.542 372.64 207.542L372.647 207.536Z" fill="white"/>
<path d="M118.703 123.255H135.482L128.078 131.671H96.855L122.425 107.12L105.673 107L113.131 98.5433H114.928C114.727 99.0664 114.586 99.6364 114.525 100.247C114.257 102.942 115.618 105.283 117.57 105.477C118.623 105.578 119.635 105.041 120.38 104.096C119.515 103.848 118.878 103.043 118.878 102.098C118.878 100.944 119.81 100.012 120.963 100.012C121.191 100.012 121.419 100.052 121.62 100.119C121.607 99.5559 121.526 99.0195 121.379 98.5299H122.68C122.472 99.053 122.331 99.6364 122.271 100.247C122.003 102.942 123.364 105.283 125.315 105.477C126.368 105.578 127.381 105.041 128.125 104.096C127.26 103.848 126.623 103.043 126.623 102.098C126.623 100.944 127.555 100.012 128.709 100.012C128.937 100.012 129.165 100.052 129.366 100.119C129.352 99.5492 129.265 99.0127 129.118 98.5098L144.387 98.483L118.683 123.248L118.703 123.255Z" fill="white"/>
<path d="M136.883 111.754H139.016L139.995 108.528V111.754H141.289L143.147 108.642L142.188 111.754H144.052L146.245 105.45H143.697L141.564 108.857V105.45H139.116L136.883 111.754Z" fill="white"/>
<path d="M136.373 113.142H139.512L136.36 121.799H133.222L136.373 113.142Z" fill="white"/>
<path d="M140.457 113.142H147.955C148.256 113.142 148.518 113.229 148.719 113.397C148.927 113.564 149.095 113.772 149.222 114.02C149.35 114.269 149.45 114.523 149.51 114.805C149.571 115.08 149.598 115.328 149.598 115.549C149.598 116.005 149.49 116.428 149.269 116.81C149.048 117.192 148.773 117.521 148.438 117.796C148.102 118.071 147.727 118.285 147.324 118.44C146.922 118.594 146.533 118.668 146.164 118.668H141.577L140.437 121.806H137.299L140.451 113.149L140.457 113.142ZM141.879 117.843L143.448 116.455H146.064C146.064 116.455 146.097 116.428 146.137 116.381C146.178 116.334 146.218 116.274 146.258 116.207C146.298 116.139 146.345 116.079 146.379 116.019C146.419 115.958 146.439 115.911 146.453 115.878L146.486 115.797C146.486 115.797 146.466 115.757 146.453 115.717C146.419 115.663 146.365 115.59 146.278 115.496C146.198 115.402 146.144 115.355 146.124 115.355H142.778L141.879 117.836V117.843Z" fill="white"/>
<path d="M151.482 113.142H158.98C159.281 113.142 159.543 113.229 159.744 113.397C159.952 113.564 160.12 113.772 160.247 114.02C160.374 114.269 160.475 114.523 160.535 114.805C160.596 115.08 160.623 115.328 160.623 115.549C160.623 116.005 160.515 116.428 160.294 116.81C160.073 117.192 159.798 117.521 159.463 117.796C159.127 118.071 158.752 118.285 158.349 118.44C157.947 118.594 157.558 118.668 157.189 118.668H152.602L151.462 121.806H148.324L151.476 113.149L151.482 113.142ZM152.904 117.843L154.473 116.455H157.089C157.089 116.455 157.122 116.428 157.162 116.381C157.203 116.334 157.243 116.274 157.283 116.207C157.323 116.139 157.37 116.079 157.404 116.019C157.444 115.958 157.464 115.911 157.477 115.878L157.511 115.797C157.511 115.797 157.491 115.757 157.477 115.717C157.444 115.663 157.39 115.59 157.303 115.496C157.223 115.402 157.169 115.355 157.149 115.355H153.803L152.904 117.836V117.843Z" fill="white"/>
<path d="M162.862 117.682L161.018 113.142H164.512L165.33 115.181L167.65 113.142H171.144L166.001 117.682L164.498 121.799H161.36L162.862 117.682Z" fill="white"/>
<path d="M147.821 108.763L146.479 105.457H149.028L149.625 106.946L151.315 105.457H153.863L150.114 108.763L149.021 111.761H146.734L147.827 108.763H147.821Z" fill="white"/>
<path d="M214.232 162.166C210.969 162.166 208.083 162.052 205.58 161.88C193.621 161.057 187.69 158.796 187.443 158.699C186.926 158.499 186.67 157.916 186.87 157.399C187.071 156.882 187.652 156.626 188.17 156.826C188.228 156.849 194.149 159.093 205.85 159.886C216.658 160.619 234.746 160.227 259.537 154.208C260.075 154.077 260.619 154.409 260.75 154.947C260.881 155.487 260.549 156.029 260.011 156.161C240.627 160.868 225.271 162.166 214.232 162.166Z" fill="#65ACE4"/>
<path d="M259.031 191.245C256.925 174.485 244.711 166.835 229.758 166.885C222.092 166.91 240.628 181.577 247.83 196.54C254.034 209.428 260.541 203.265 259.031 191.245Z" fill="#FFC34E"/>
<path d="M258.05 114.447C258.916 111.382 257.901 110.314 258.391 106.025C258.904 101.536 259.402 97.5952 255.095 95.2745C250.789 92.9539 245.288 87.9692 241.589 90.8956C237.89 93.822 234.567 92.5218 232.953 95.1492C231.339 97.7765 230.515 100.338 230.928 105.23C231.213 108.604 258.048 114.447 258.048 114.447H258.05Z" fill="#292C34"/>
<path d="M197.721 281.088C197.721 281.088 195.349 282.207 187.684 280.103C181.663 278.449 175.189 277.325 179.287 281.304C183.385 285.284 190.34 287.688 193.11 287.881C195.881 288.073 199.696 291.077 201.509 289.704C203.32 288.33 204.095 281.912 203.906 281.926C203.717 281.939 197.719 281.088 197.719 281.088H197.721Z" fill="#0F2D5C"/>
<path d="M293.195 272.857C293.195 272.857 304.934 279.959 302.722 281.665C300.51 283.368 297.027 286.36 294.362 289.371C291.695 292.383 281.926 293.428 281.594 291.731C281.263 290.033 287.465 287.319 288.464 285.812C289.463 284.304 288.919 276.13 288.919 276.13L293.197 272.859L293.195 272.857Z" fill="#0F2D5C"/>
<path d="M235.668 197.463C235.668 197.463 253.3 245.807 257.059 250.522C260.818 255.236 288.977 280.825 288.977 280.825C288.977 280.825 296.294 276.367 294.709 273.371C293.124 270.376 278.838 245.13 272.329 238.085C265.82 231.04 269.643 204.552 261.847 184.828C254.052 165.101 235.667 197.463 235.667 197.463H235.668Z" fill="#FF8F6B"/>
<path d="M235.668 197.463C235.668 197.463 254.051 165.101 261.849 184.828C264.715 192.079 266.235 200.779 266.881 208.541C260.435 223.233 257 238.61 255.629 248.053C250.092 237.005 235.67 197.461 235.67 197.461L235.668 197.463Z" fill="#E77652"/>
<path d="M252.633 104.773C252.633 104.773 259.427 116.955 266.837 130.021C278.875 151.246 265.325 189.777 261.032 193.898C256.739 198.018 234.427 190.688 233.019 187.605C231.611 184.522 233.526 163.604 240.228 150.403C246.93 137.204 250.338 128.365 248.529 122.52C247.021 117.648 244.741 108.469 244.741 108.469L252.633 104.771V104.773Z" fill="#FFBA88"/>
<path d="M252.632 104.773L244.74 108.471C244.74 108.471 247.021 117.647 248.528 122.522C248.888 123.685 249.037 124.968 249 126.378C251.789 123.95 255.133 119.887 257.422 113.328C254.535 108.183 252.632 104.773 252.632 104.773Z" fill="#E38540"/>
<path d="M234.462 106.929C232.697 112.915 233.673 119.58 237.424 121.378C240.153 122.688 249.37 120.78 250.745 113.992C252.043 107.583 251.81 101.547 247.314 99.597C242.819 97.6467 236.311 100.656 234.464 106.927L234.462 106.929Z" fill="#FFBA88"/>
<path d="M235.404 180.683C226.162 226.116 193.032 278.365 194.62 281.307C196.134 284.11 204.139 285.221 204.139 285.221C204.139 285.221 231.296 256.485 233.267 243.873C235.238 231.263 261.537 211.598 264.509 195.164C267.483 178.731 264.503 181.537 264.503 181.537L235.402 180.683H235.404Z" fill="#FF8F6B"/>
<path d="M246.476 132.074C239.058 137.915 220.409 142.809 220.409 142.809H244.74L246.476 132.074Z" fill="#EDD112"/>
<path d="M265.83 126.489L262.811 121.417C262.811 121.417 261.126 123.157 255.787 125.443C250.449 127.729 247.107 127.654 247.107 127.654L240.322 149.755L262.375 139.02L265.83 126.489Z" fill="#EDD112"/>
<path d="M266.881 125.051C259.103 122.127 251.527 133.179 248.844 138.547C246.162 143.914 244.899 147.704 244.899 147.704L240.322 146.441C240.322 146.441 234.955 158.762 234.008 164.916C233.061 171.069 231.956 192.142 231.956 192.142C231.956 192.142 265.328 190.215 265.446 189.228C265.566 188.242 270.858 177.481 272.568 169.175C275.367 155.598 273.953 136.338 270.867 130.97C267.781 125.601 266.879 125.053 266.879 125.053L266.881 125.051Z" fill="#FF8F6B"/>
<path d="M243.982 191.241H185.661C185.513 191.241 185.513 138.583 185.661 138.583H243.982C244.131 138.583 244.252 138.703 244.252 138.854V190.973C244.252 191.121 244.133 191.243 243.982 191.243V191.241Z" fill="#EB9C63"/>
<path d="M226.315 191.241H184.449C184.3 191.241 184.3 138.583 184.449 138.583H226.315C226.464 138.583 226.583 138.703 226.583 138.854V190.973C226.583 191.121 226.464 191.243 226.315 191.243V191.241Z" fill="#F0B589"/>
<g opacity="0.5">
<path d="M212.535 152.813H222.052C222.174 152.813 222.272 152.912 222.272 153.033V154.43C222.272 154.552 222.174 154.65 222.052 154.65H212.535C212.413 154.65 212.315 154.552 212.315 154.43V153.031C212.315 152.91 212.413 152.812 212.535 152.812V152.813Z" fill="#5B493D"/>
<path d="M214.809 145.344L213.661 146.492C213.491 146.661 213.611 146.951 213.852 146.951H213.883C214.031 146.951 214.151 147.07 214.151 147.221V153.461C214.151 153.61 214.271 153.731 214.421 153.731H215.578C215.727 153.731 215.848 153.612 215.848 153.461V147.221C215.848 147.072 215.968 146.951 216.116 146.951H216.147C216.386 146.951 216.508 146.661 216.338 146.492L215.19 145.344C215.086 145.24 214.915 145.24 214.811 145.344H214.809Z" fill="#5B493D"/>
<path d="M219.539 145.344L218.392 146.492C218.222 146.661 218.341 146.951 218.583 146.951H218.613C218.762 146.951 218.883 147.07 218.883 147.221V153.461C218.883 153.61 219.003 153.731 219.153 153.731H220.311C220.459 153.731 220.579 153.612 220.579 153.461V147.221C220.579 147.072 220.698 146.951 220.847 146.951H220.878C221.117 146.951 221.238 146.661 221.068 146.492L219.921 145.344C219.815 145.24 219.645 145.24 219.541 145.344H219.539Z" fill="#5B493D"/>
</g>
<path d="M215.159 190.759C213.587 189.388 212.089 187.813 213.389 187.721C214.733 187.626 217.769 189.332 220.087 190.786C221.923 190.813 223.151 190.848 223.151 190.848L227.306 195.856C227.306 195.856 223.194 196.429 217.404 196.556C211.614 196.683 205.998 194.181 203.95 192.204C202.766 191.06 209.375 190.786 215.159 190.757V190.759Z" fill="#FFBA88"/>
<path d="M262.916 126.955C271.674 129.548 273.242 141.921 267.402 157.604C261.562 173.288 238.994 194.837 227.401 197.21C221.281 198.462 220.408 191.043 220.408 191.043C220.408 191.043 241.636 170.143 245.399 162.111C249.161 154.078 254.938 124.594 262.914 126.955H262.916Z" fill="#EDD112"/>
<path d="M258.05 114.447C254.999 114.549 249.952 112.801 249.645 111.445C249.336 110.089 250.021 107.78 249.022 108.627C248.021 109.474 247.423 114.863 246.523 115.517C244.962 116.646 244.74 109.655 245.641 107.207C246.268 105.498 243.761 103.098 239.718 105.807C236.233 108.141 233.877 107.373 232.586 106.835C231.296 106.297 232.037 102.22 232.037 102.22L241.794 94.8186L251.932 100.253L258.054 114.445L258.05 114.447Z" fill="#292C34"/>
<path d="M248.61 109.978C248.276 111.998 249.111 113.819 250.476 114.045C251.842 114.27 253.219 112.816 253.553 110.796C253.886 108.776 253.051 106.955 251.686 106.73C250.32 106.504 248.943 107.959 248.61 109.978Z" fill="#FFBA88"/>
<path d="M204.803 176.863H215.709L210.898 182.526H190.599L207.224 166.008L196.333 165.929L201.181 160.238H202.352C202.22 160.588 202.129 160.975 202.09 161.385C201.915 163.197 202.802 164.774 204.072 164.906C204.757 164.976 205.413 164.612 205.899 163.976C205.337 163.807 204.924 163.268 204.924 162.629C204.924 161.855 205.531 161.227 206.279 161.227C206.429 161.227 206.574 161.252 206.708 161.3C206.699 160.922 206.644 160.56 206.55 160.227H207.395C207.262 160.58 207.17 160.97 207.13 161.385C206.955 163.197 207.842 164.774 209.111 164.906C209.796 164.976 210.453 164.612 210.939 163.976C210.377 163.807 209.964 163.268 209.964 162.629C209.964 161.855 210.571 161.227 211.319 161.227C211.468 161.227 211.613 161.252 211.748 161.3C211.739 160.917 211.684 160.554 211.586 160.218L221.513 160.199L204.803 176.863Z" fill="white"/>
<defs>
<linearGradient id="paint0_linear_145_658" x1="-76.6768" y1="158.763" x2="62.6208" y2="158.763" gradientUnits="userSpaceOnUse">
<stop stop-color="#2967B0"/>
<stop offset="1" stop-color="#0D1F37"/>
</linearGradient>
<linearGradient id="paint1_linear_145_658" x1="-75.8657" y1="116.455" x2="62.6204" y2="116.455" gradientUnits="userSpaceOnUse">
<stop stop-color="#59A4FF"/>
<stop offset="1" stop-color="#2967B0"/>
</linearGradient>
</defs>
</svg>
