<svg width="388" height="310" viewBox="0 0 388 310" fill="none" xmlns="http://www.w3.org/2000/svg">
<circle cx="246.5" cy="141.5" r="141.5" fill="#FFFFD4"/>
<path fill-rule="evenodd" clip-rule="evenodd" d="M242.169 70.944C243.384 66.0336 243.305 61.3049 243.45 56.3241C243.479 55.3514 242.71 54.5428 241.734 54.5135C240.757 54.4842 239.942 55.2518 239.914 56.2245C239.776 60.9474 239.887 65.4418 238.734 70.1061C238.5 71.0495 239.081 72.0046 240.029 72.2331C240.977 72.4675 241.936 71.8874 242.169 70.944Z" fill="black"/>
<path fill-rule="evenodd" clip-rule="evenodd" d="M252.494 80.4595C260.739 72.9709 268.507 63.3376 273.937 53.6105C274.411 52.7608 274.102 51.6885 273.248 51.2197C272.394 50.7509 271.317 51.0557 270.843 51.9053C265.593 61.3101 258.08 70.627 250.107 77.8637C249.387 78.52 249.337 79.6334 249.995 80.3482C250.654 81.0631 251.774 81.1158 252.494 80.4595Z" fill="black"/>
<path fill-rule="evenodd" clip-rule="evenodd" d="M254.583 88.6399C262.123 89.8763 269.896 87.7668 276.752 84.7842C277.647 84.3916 278.055 83.3545 277.664 82.4697C277.273 81.579 276.228 81.1747 275.334 81.5614C269.089 84.2803 262.027 86.2961 255.159 85.171C254.195 85.0128 253.284 85.6632 253.126 86.6183C252.966 87.5734 253.62 88.4817 254.583 88.6399Z" fill="black"/>
<path opacity="0.3" d="M93.9995 267.073C228.204 267.073 336.999 266.175 336.999 265.068C336.999 263.96 228.204 263.062 93.9995 263.062C-40.2054 263.062 -149 263.96 -149 265.068C-149 266.175 -40.2054 267.073 93.9995 267.073Z" fill="#0D1F37"/>
<path d="M159.511 238.619C159.511 224.02 169.758 212.177 182.405 212.177H169.161C156.513 212.177 146.266 224.02 146.266 238.619C146.266 253.218 156.513 265.067 169.161 265.067H182.405C169.758 265.067 159.511 253.224 159.511 238.619Z" fill="#231F20"/>
<path d="M181.895 212.177C194.825 212.177 205.306 224.02 205.306 238.619C205.306 253.218 194.825 265.067 181.895 265.067C168.966 265.067 158.485 253.224 158.485 238.619C158.485 224.013 168.966 212.177 181.895 212.177Z" fill="#939598"/>
<path d="M-83.9381 241.696H317.565C323.775 241.696 328.804 236.666 328.804 230.457V196.263H-105.531V234.775C-105.531 238.598 -87.7672 241.703 -83.9381 241.703V241.696Z" fill="#0D1F37"/>
<path d="M-95.2982 81.0067H22.6206V236.519H-94.527C-97.7593 236.519 -116.677 233.549 -116.677 226.306V174.019C-116.677 122.671 -103.6 81 -95.2982 81V81.0067Z" fill="url(#paint0_linear_380_14893)"/>
<path d="M22.6206 151.896V81.0068H-95.2981C-102.366 81.0068 -112.895 111.224 -115.865 151.896H22.6206Z" fill="url(#paint1_linear_380_14893)"/>
<path d="M1.93243 236.519C-0.877388 236.519 -15.3758 234.326 -19.4262 229.129H-109.367C-106.175 234.883 -90.4565 237.29 -87.5192 237.29H9.76507V236.519H1.93243Z" fill="#0D1F37"/>
<path d="M280.823 212.177C293.752 212.177 304.233 224.02 304.233 238.619C304.233 253.218 293.752 265.067 280.823 265.067C267.893 265.067 257.412 253.224 257.412 238.619C257.412 224.013 267.893 212.177 280.823 212.177Z" fill="#939598"/>
<path d="M281.339 212.177C293.986 212.177 304.233 224.02 304.233 238.619C304.233 253.218 293.986 265.067 281.339 265.067C268.691 265.067 258.445 253.224 258.445 238.619C258.445 224.013 268.691 212.177 281.339 212.177Z" fill="#414042"/>
<path d="M281.339 218.956C290.748 218.956 298.366 227.761 298.366 238.618C298.366 249.475 290.741 258.287 281.339 258.287C271.937 258.287 264.312 249.482 264.312 238.618C264.312 227.754 271.937 218.956 281.339 218.956Z" fill="#231F20"/>
<g style="mix-blend-mode:multiply">
<path d="M281.339 238.035C286.865 238.035 291.988 239.141 296.233 241.039C296.327 240.248 296.394 239.443 296.394 238.618C296.394 229.015 289.654 221.229 281.332 221.229C273.01 221.229 266.271 229.015 266.271 238.618C266.271 239.443 266.338 240.241 266.431 241.039C270.676 239.141 275.807 238.035 281.326 238.035H281.339Z" fill="#D1D3D4"/>
</g>
<path d="M297.226 238.618C297.226 228.774 290.499 220.753 282.063 220.311C281.822 220.297 281.58 220.271 281.332 220.271C277.818 220.271 274.586 221.605 271.95 223.831C268.007 227.171 265.439 232.543 265.439 238.618C265.439 238.866 265.466 239.108 265.473 239.349C265.553 241.763 266.036 244.05 266.847 246.136C267.981 249.039 269.751 251.541 271.95 253.405C274.579 255.631 277.818 256.966 281.332 256.966C281.58 256.966 281.822 256.939 282.063 256.926C284.799 256.785 287.348 255.846 289.547 254.304C293.973 251.205 296.971 245.7 297.192 239.349C297.199 239.108 297.226 238.866 297.226 238.618ZM296.166 237.887H284.062L294.899 231.631C295.643 233.555 296.079 235.668 296.159 237.887H296.166ZM294.322 230.276L283.331 236.62L290.144 224.817C291.847 226.272 293.282 228.123 294.315 230.276H294.322ZM288.984 223.919L282.07 235.889V221.498C284.591 221.639 286.945 222.504 288.984 223.919ZM280.608 255.732C278.087 255.591 275.733 254.726 273.694 253.311L280.608 241.341V255.732ZM273.694 223.919C275.733 222.504 278.087 221.639 280.608 221.498V235.889L273.694 223.919ZM272.527 224.817L279.341 236.62L268.349 230.276C269.389 228.123 270.817 226.272 272.521 224.817H272.527ZM278.61 237.887H266.505C266.586 235.668 267.022 233.555 267.766 231.631L278.603 237.887H278.61ZM266.505 239.349H278.61L267.773 245.606C267.028 243.681 266.586 241.569 266.505 239.349ZM268.349 246.96L279.341 240.617L272.527 252.419C270.824 250.964 269.389 249.113 268.356 246.96H268.349ZM282.063 255.739V241.348L288.977 253.318C286.938 254.733 284.585 255.598 282.063 255.739ZM290.144 252.419L283.331 240.617L294.315 246.96C293.276 249.113 291.847 250.964 290.144 252.419ZM294.899 245.606L284.062 239.349H296.166C296.086 241.569 295.643 243.681 294.899 245.606Z" fill="#F1F2F2"/>
<path d="M281.339 230.725C285.114 230.725 288.179 234.259 288.179 238.618C288.179 242.977 285.121 246.517 281.339 246.517C277.557 246.517 274.499 242.983 274.499 238.618C274.499 234.252 277.557 230.725 281.339 230.725Z" fill="#F1F2F2"/>
<path d="M281.339 232.207C284.41 232.207 286.892 235.077 286.892 238.618C286.892 242.159 284.404 245.036 281.339 245.036C278.274 245.036 275.786 242.165 275.786 238.618C275.786 235.071 278.274 232.207 281.339 232.207Z" fill="#808285"/>
<g style="mix-blend-mode:multiply">
<path d="M281.339 237.431C283.378 237.431 285.269 237.78 286.872 238.37C286.758 234.943 284.337 232.207 281.339 232.207C278.342 232.207 275.921 234.95 275.807 238.37C277.409 237.78 279.3 237.431 281.339 237.431Z" fill="#808285"/>
</g>
<path d="M281.339 235.292C282.935 235.292 284.223 236.781 284.223 238.625C284.223 240.469 282.928 241.958 281.339 241.958C279.75 241.958 278.456 240.469 278.456 238.625C278.456 236.781 279.75 235.292 281.339 235.292Z" fill="white"/>
<path d="M53.2 212.177C66.1292 212.177 76.6108 224.02 76.6108 238.619C76.6108 253.218 66.1292 265.067 53.2 265.067C40.2708 265.067 29.7893 253.224 29.7893 238.619C29.7893 224.013 40.2708 212.177 53.2 212.177Z" fill="#939598"/>
<path d="M53.7098 212.177C66.3574 212.177 76.6042 224.02 76.6042 238.619C76.6042 253.218 66.3574 265.067 53.7098 265.067C41.0622 265.067 30.8154 253.224 30.8154 238.619C30.8154 224.013 41.0622 212.177 53.7098 212.177Z" fill="#414042"/>
<path d="M53.7097 218.956C63.1183 218.956 70.7363 227.761 70.7363 238.618C70.7363 249.475 63.1116 258.287 53.7097 258.287C44.3079 258.287 36.6831 249.482 36.6831 238.618C36.6831 227.754 44.3079 218.956 53.7097 218.956Z" fill="#231F20"/>
<g style="mix-blend-mode:multiply">
<path d="M53.7098 238.035C59.2355 238.035 64.3589 239.141 68.6038 241.039C68.6977 240.248 68.7648 239.443 68.7648 238.618C68.7648 229.015 62.0252 221.229 53.7031 221.229C45.3809 221.229 38.6414 229.015 38.6414 238.618C38.6414 239.443 38.7084 240.241 38.8023 241.039C43.0472 239.141 48.1773 238.035 53.6963 238.035H53.7098Z" fill="#D1D3D4"/>
</g>
<path d="M69.6029 238.618C69.6029 228.774 62.8768 220.753 54.4406 220.311C54.1992 220.297 53.9578 220.271 53.7097 220.271C50.1957 220.271 46.9634 221.605 44.3279 223.831C40.3848 227.171 37.8164 232.543 37.8164 238.618C37.8164 238.866 37.8432 239.108 37.8499 239.349C37.9304 241.763 38.4132 244.05 39.2247 246.136C40.358 249.039 42.1284 251.541 44.3279 253.405C46.9567 255.631 50.1957 256.966 53.7097 256.966C53.9578 256.966 54.1992 256.939 54.4406 256.926C57.1766 256.785 59.725 255.846 61.9245 254.304C66.3505 251.205 69.3481 245.7 69.5694 239.349C69.5761 239.108 69.6029 238.866 69.6029 238.618ZM68.5434 237.887H56.439L67.2759 231.631C68.0203 233.555 68.4562 235.668 68.5367 237.887H68.5434ZM66.6992 230.276L55.708 236.62L62.5214 224.817C64.2247 226.272 65.6598 228.123 66.6925 230.276H66.6992ZM61.3612 223.919L54.4473 235.889V221.498C56.9688 221.639 59.3226 222.504 61.3612 223.919ZM52.9854 255.732C50.464 255.591 48.1101 254.726 46.0715 253.311L52.9854 241.341V255.732ZM46.0715 223.919C48.1101 222.504 50.464 221.639 52.9854 221.498V235.889L46.0715 223.919ZM44.9046 224.817L51.718 236.62L40.7268 230.276C41.7662 228.123 43.1946 226.272 44.8979 224.817H44.9046ZM50.987 237.887H38.8826C38.9631 235.668 39.399 233.555 40.1434 231.631L50.9803 237.887H50.987ZM38.8826 239.349H50.987L40.1501 245.606C39.4057 243.681 38.9631 241.569 38.8826 239.349ZM40.7268 246.96L51.718 240.617L44.9046 252.419C43.2013 250.964 41.7662 249.113 40.7335 246.96H40.7268ZM54.4406 255.739V241.348L61.3545 253.318C59.3159 254.733 56.962 255.598 54.4406 255.739ZM62.5214 252.419L55.708 240.617L66.6925 246.96C65.6531 249.113 64.2247 250.964 62.5214 252.419ZM67.2759 245.606L56.439 239.349H68.5434C68.4629 241.569 68.0203 243.681 67.2759 245.606Z" fill="#F1F2F2"/>
<path d="M53.7097 230.725C57.4852 230.725 60.5499 234.259 60.5499 238.618C60.5499 242.977 57.4919 246.517 53.7097 246.517C49.9275 246.517 46.8696 242.983 46.8696 238.618C46.8696 234.252 49.9275 230.725 53.7097 230.725Z" fill="#F1F2F2"/>
<path d="M53.7098 232.207C56.7812 232.207 59.2624 235.077 59.2624 238.618C59.2624 242.159 56.7745 245.036 53.7098 245.036C50.6452 245.036 48.1572 242.165 48.1572 238.618C48.1572 235.071 50.6452 232.207 53.7098 232.207Z" fill="#808285"/>
<g style="mix-blend-mode:multiply">
<path d="M53.7097 237.431C55.7483 237.431 57.6394 237.78 59.2422 238.37C59.1282 234.943 56.7073 232.207 53.7097 232.207C50.7121 232.207 48.2912 234.95 48.1772 238.37C49.78 237.78 51.6711 237.431 53.7097 237.431Z" fill="#808285"/>
</g>
<path d="M53.7098 235.292C55.3058 235.292 56.5934 236.781 56.5934 238.625C56.5934 240.469 55.2991 241.958 53.7098 241.958C52.1205 241.958 50.8262 240.469 50.8262 238.625C50.8262 236.781 52.1205 235.292 53.7098 235.292Z" fill="white"/>
<path d="M328.436 168.514C325.653 159.025 290.312 147.745 280.065 145.264C280.065 145.264 237.857 81.0068 222.386 81.0068H-6.0073C-7.32168 81.0068 -10.8088 122.678 -10.8088 174.026V226.313C-10.8088 233.549 8.10888 236.526 11.3412 236.526H25.0483C25.5311 217.515 38.2055 203.251 54.4273 203.251C69.7305 203.251 79.2195 217.521 79.5816 236.526H252.725C253.207 217.515 265.882 203.251 282.104 203.251C297.407 203.251 306.896 217.521 307.258 236.526H323.594C323.594 236.526 323.641 236.513 323.661 236.499C325.934 236.359 327.859 234.722 328.295 232.462C333.022 208.2 330.937 176.997 328.449 168.514H328.436Z" fill="#2967B0"/>
<path d="M239.044 151.896C267.94 151.896 311.235 165.094 330.481 182.563C329.978 176.219 329.227 171.209 328.436 168.507C325.653 159.018 290.312 147.738 280.065 145.257C280.065 145.257 237.857 81 222.386 81H-6.0073C-7.12721 81 -9.82305 111.217 -10.5942 151.889H239.051L239.044 151.896Z" fill="#59A4FF"/>
<path d="M1.9928 183.219H304.233C304.233 179.565 242.692 176.601 153.113 176.601H64.2918C13.4802 176.601 1.98608 179.565 1.98608 183.219H1.9928Z" fill="#59A4FF"/>
<path d="M-2.79517 124.736C-2.62081 123.489 -1.78926 122.678 -0.689467 122.678C-0.689467 122.678 -4.40462 137.907 16.5651 137.907H142.243C182.821 137.907 176.169 122.678 177.342 122.678C178.516 122.678 179.682 123.898 179.857 125.32C180.581 131.409 178.757 145.907 145.053 145.907H11.8977C-4.24369 145.907 -3.57306 130.41 -2.78846 124.73L-2.79517 124.736Z" fill="#2967B0"/>
<g style="mix-blend-mode:multiply">
<path d="M175.37 95.6994C174.492 94.5527 173.124 93.748 171.662 93.748H5.53368C2.05325 93.748 -0.991263 95.002 -3.12378 97.1681C-1.66187 92.3598 2.60315 89.3086 7.92774 89.3086H170.877C173.345 89.3086 175.612 91.6825 175.471 94.1101L175.377 95.6994H175.37Z" fill="#A7A9AC"/>
</g>
<path d="M312.703 236.52C312.375 213.545 300.974 196.257 282.519 196.257C262.965 196.257 247.702 213.545 247.259 236.52H252.718C253.201 217.508 265.875 203.245 282.097 203.245C297.4 203.245 306.889 217.515 307.251 236.52H312.71H312.703Z" fill="#0D1F37"/>
<path d="M85.0334 236.52C84.7048 213.545 73.3046 196.257 54.8496 196.257C35.2948 196.257 20.032 213.545 19.5894 236.52H25.0481C25.5309 217.508 38.2052 203.245 54.4271 203.245C69.7303 203.245 79.2193 217.515 79.5814 236.52H85.0401H85.0334Z" fill="#0D1F37"/>
<path d="M189.091 123.577C189.507 130.014 189.969 137.21 190.331 145.264H273.091C250.344 111.794 232.781 92.6016 224.921 92.6016H191.928C191.17 92.6016 190.553 92.8698 190.043 93.413C187.347 96.2899 188.045 107.147 189.098 123.577H189.091Z" fill="#6D6E71"/>
<path d="M190.332 145.263H261.315V129.41H189.46C189.761 134.292 190.07 139.556 190.332 145.263Z" fill="#A97C50"/>
<path d="M190.331 145.263H249.874L251.216 140.697C252.456 136.472 249.284 132.247 244.885 132.247H189.634C189.882 136.318 190.124 140.65 190.331 145.263Z" fill="#603913"/>
<path d="M242.88 145.27C243.893 137.914 239.185 132.247 231.52 132.247C223.855 132.247 215.868 137.907 212.622 145.27H215.767C218.477 139.637 224.673 135.359 230.621 135.359C236.57 135.359 240.291 139.637 239.742 145.27H242.887H242.88Z" fill="#726658"/>
<path d="M319.637 199.247V201.326C319.637 202.272 320.402 203.036 321.347 203.036H331.078C331.111 201.179 331.118 199.341 331.104 197.544H321.347C320.402 197.544 319.637 198.308 319.637 199.254V199.247Z" fill="#F7941D"/>
<path d="M329.113 202.318H322.051C321.193 202.318 320.495 201.621 320.495 200.763V199.804C320.495 198.945 321.193 198.248 322.051 198.248H329.207C330.065 198.248 330.762 198.945 330.762 199.804V200.669C330.762 201.581 330.025 202.318 329.113 202.318Z" fill="#F15A29"/>
<path d="M330.434 182.026H324.304C321.723 182.026 319.63 184.119 319.63 186.7V194.164C319.63 195.318 320.569 196.257 321.723 196.257H331.078C331.01 191.086 330.776 186.244 330.427 182.026H330.434Z" fill="#E6E7E8"/>
<path d="M325.827 195.505H323.842C323.171 195.505 322.621 194.962 322.621 194.284V190.851C322.621 189.349 323.842 188.135 325.337 188.135H328.751C329.542 188.135 330.186 188.779 330.186 189.57V191.139C330.186 193.547 328.234 195.498 325.827 195.498V195.505Z" fill="#D1D3D4"/>
<path d="M325.498 191.394H326.357C327.295 191.394 328.06 190.63 328.06 189.691V184.93C328.06 183.991 327.295 183.227 326.357 183.227H323.855C322.051 183.227 320.589 184.688 320.589 186.492C320.589 189.202 322.789 191.401 325.498 191.401V191.394Z" fill="white"/>
<path opacity="0.5" d="M215.097 114.228C221.065 114.228 232.627 125.3 247.796 145.271H273.091C250.344 111.801 232.781 92.6016 224.921 92.6016H191.928C191.17 92.6016 190.553 92.8698 190.043 93.413C187.897 95.6997 187.904 103.056 188.521 114.228H215.097Z" fill="white"/>
<g style="mix-blend-mode:multiply">
<path d="M195.629 163.826C198.114 163.826 200.129 162.418 200.129 160.681C200.129 158.944 198.114 157.536 195.629 157.536C193.144 157.536 191.13 158.944 191.13 160.681C191.13 162.418 193.144 163.826 195.629 163.826Z" fill="#939598"/>
</g>
<path d="M198.955 162.452H191.183C190.204 162.452 189.406 161.654 189.406 160.675C189.406 159.695 190.204 158.897 191.183 158.897H198.955C199.934 158.897 200.732 159.695 200.732 160.675C200.732 161.654 199.934 162.452 198.955 162.452Z" fill="#939598"/>
<path d="M200.062 162.452H192.29C191.311 162.452 190.513 161.654 190.513 160.675C190.513 159.695 191.311 158.897 192.29 158.897H200.062C201.041 158.897 201.839 159.695 201.839 160.675C201.839 161.654 201.041 162.452 200.062 162.452Z" fill="white"/>
<g style="mix-blend-mode:multiply">
<path d="M280.99 147.061L268.899 135.279C266.425 132.865 264.42 132.918 264.42 135.393V143.085L258.599 137.418C258.009 136.848 257.492 136.633 257.171 136.754C256.956 136.835 256.822 137.069 256.822 137.465C256.822 137.498 256.828 137.539 256.835 137.579C256.835 137.612 256.822 137.639 256.822 137.673V137.767C256.822 138.86 257.714 140.617 258.807 141.683L264.42 147.148V148.329C264.42 149.361 265.258 151.018 266.291 152.024L274.975 160.48C276.195 161.674 283.21 166.723 283.21 164.095V151.434C283.21 150.213 282.217 148.255 280.997 147.068L280.99 147.061Z" fill="#939598"/>
</g>
<path d="M267.176 135.312H258.022C257.141 135.312 256.426 136.027 256.426 136.909V137.774C256.426 138.655 257.141 139.37 258.022 139.37H267.176C268.057 139.37 268.772 138.655 268.772 137.774V136.909C268.772 136.027 268.057 135.312 267.176 135.312Z" fill="#414042"/>
<path d="M265.962 138.867H258.203C257.224 138.867 256.426 138.069 256.426 137.09C256.426 136.111 257.224 135.312 258.203 135.312H265.962C266.941 135.312 267.739 136.111 267.739 137.09C267.739 138.069 266.941 138.867 265.962 138.867Z" fill="#A7A9AC"/>
<path d="M265.506 135.312H258.203C257.224 135.312 256.426 136.111 256.426 137.09H263.729C264.708 137.09 265.506 136.292 265.506 135.312Z" fill="#F1F2F2"/>
<path d="M271.964 142.427H263.34V127.62C263.34 125.146 265.345 123.141 267.82 123.141H277.986C279.207 123.141 280.199 124.133 280.199 125.354V138.015C280.199 140.643 273.185 142.427 271.964 142.427Z" fill="#414042"/>
<path d="M270.241 142.427H263.28C262.247 142.427 261.409 141.589 261.409 140.556V127.62C261.409 125.146 263.414 123.141 265.888 123.141H276.055C277.275 123.141 278.268 124.133 278.268 125.354V138.015C278.268 140.442 272.668 142.427 270.241 142.427Z" fill="#A7A9AC"/>
<path d="M270.187 141.83H263.756C262.804 141.83 262.026 141.052 262.026 140.093V128.063C262.026 125.763 263.876 123.892 266.163 123.892H275.558C276.685 123.892 277.604 124.81 277.604 125.95V137.726C277.604 139.986 272.427 141.83 270.187 141.83Z" fill="#67DEDC"/>
<path opacity="0.5" d="M275.558 123.891H266.163C263.876 123.891 262.026 125.756 262.026 128.063V136.351C265.714 132.448 271.749 130.624 277.604 130.162V125.944C277.604 124.803 276.692 123.885 275.558 123.885V123.891Z" fill="white"/>
<path d="M334.531 232.582C334.069 234.936 331.99 236.626 329.582 236.626H307.238C306.399 223.469 303.308 214.1 295.033 207.535H332.647C335.155 207.535 337.14 209.654 336.992 212.156C336.583 219.083 335.805 226.077 334.538 232.575L334.531 232.582Z" fill="#231F20"/>
<path opacity="0.2" d="M332.647 207.535H304.233C304.233 207.535 304.267 207.562 304.28 207.575C307.446 210.09 311.302 211.586 315.345 211.586H336.959C336.798 209.346 334.954 207.542 332.64 207.542L332.647 207.535Z" fill="white"/>
<path d="M73.1108 122.398H86.2517L80.4549 128.991H56L76.029 109.765L62.9064 109.673L68.7484 103.049L70.1559 103.047C69.9992 103.456 69.8905 103.906 69.8425 104.382C69.6308 106.493 70.6995 108.328 72.2299 108.481C73.0543 108.562 73.8449 108.139 74.4308 107.398C73.7546 107.201 73.2562 106.575 73.2562 105.831C73.2562 104.93 73.9875 104.199 74.8882 104.199C75.0675 104.199 75.244 104.227 75.405 104.282C75.3937 103.841 75.3287 103.421 75.2144 103.035H76.2323C76.0727 103.446 75.9626 103.901 75.9132 104.381C75.7028 106.491 76.7716 108.327 78.3005 108.479C79.1264 108.561 79.917 108.137 80.5029 107.396C79.8267 107.2 79.3283 106.573 79.3283 105.829C79.3283 104.928 80.0596 104.197 80.9603 104.197C81.1396 104.197 81.3147 104.225 81.477 104.28C81.4657 103.836 81.3994 103.412 81.2822 103.023L93.2414 103L73.1094 122.395L73.1108 122.398Z" fill="white"/>
<path d="M88.3412 110.773H91.8283L88.3243 120.398H84.8372L88.3412 110.773Z" fill="white"/>
<path d="M92.8815 110.774H101.217C101.555 110.774 101.841 110.867 102.069 111.055C102.299 111.243 102.487 111.473 102.633 111.745C102.778 112.018 102.884 112.308 102.95 112.616C103.017 112.925 103.051 113.201 103.051 113.442C103.051 113.95 102.929 114.416 102.688 114.84C102.445 115.263 102.137 115.63 101.762 115.938C101.386 116.247 100.975 116.486 100.526 116.655C100.079 116.825 99.6482 116.909 99.2373 116.909H94.1351L92.8645 120.397H89.3774L92.8829 110.772L92.8815 110.774ZM94.4613 116.003L96.2048 114.46H99.1103C99.1216 114.46 99.1498 114.433 99.1921 114.378C99.2345 114.323 99.2797 114.26 99.3277 114.188C99.3757 114.114 99.4209 114.045 99.4646 113.979C99.507 113.912 99.5338 113.86 99.5465 113.825L99.5832 113.734C99.5705 113.723 99.5592 113.692 99.5465 113.644C99.5098 113.583 99.4463 113.501 99.3559 113.398C99.2656 113.295 99.2077 113.244 99.1837 113.244H95.4608L94.4627 116.005L94.4613 116.003Z" fill="white"/>
<path d="M105.139 110.774H113.474C113.813 110.774 114.098 110.867 114.328 111.055C114.558 111.243 114.746 111.473 114.891 111.745C115.037 112.018 115.143 112.308 115.209 112.616C115.275 112.925 115.309 113.201 115.309 113.442C115.309 113.95 115.188 114.416 114.946 114.84C114.703 115.263 114.396 115.63 114.02 115.938C113.645 116.247 113.234 116.486 112.785 116.655C112.337 116.825 111.907 116.909 111.496 116.909H106.394L105.123 120.397H101.636L105.14 110.772L105.139 110.774ZM106.718 116.003L108.462 114.46H111.367C111.379 114.46 111.407 114.433 111.449 114.378C111.492 114.323 111.537 114.26 111.586 114.188C111.634 114.114 111.679 114.045 111.722 113.979C111.764 113.912 111.791 113.86 111.804 113.825L111.84 113.734C111.828 113.723 111.816 113.692 111.804 113.644C111.767 113.583 111.703 113.501 111.613 113.398C111.523 113.295 111.465 113.244 111.441 113.244H107.718L106.72 116.005L106.718 116.003Z" fill="white"/>
<path d="M117.795 115.821L115.744 110.772H119.629L120.537 113.043L123.115 110.772H127L121.28 115.821L119.609 120.397H116.122L117.792 115.821H117.795Z" fill="white"/>
<path d="M151.866 273.211L142.745 279.718L137.379 278.912L135.763 273.211L146.634 264.962L151.866 273.211Z" fill="#EDEDED"/>
<path d="M209.678 298.362L210.348 291.558L220.71 289.376L219.47 297.487L210.215 298.362" fill="#EDEDED"/>
<path d="M224.363 109.477C229.399 110.664 232.173 141.841 234.292 143.918C235.478 145.081 261.655 151.929 262.408 152.04C264.617 152.363 263.156 159.835 260.993 159.72C260.339 159.687 229.038 154.605 226.985 153.461C224.933 152.317 219.104 136.713 218.805 126.943C218.68 122.859 218.714 111.132 224.365 109.477H224.363Z" fill="#F8A284"/>
<path d="M223.733 135.115C223.733 135.115 228.902 134.937 231.898 132.376C231.846 131.756 231.762 131.039 231.652 130.252C231.614 129.979 232.455 129.158 232.411 128.868C231.366 122.114 228.572 111.233 224.996 109.241L219.386 118.444L223.733 135.115Z" fill="url(#paint2_linear_380_14893)"/>
<path d="M138.191 270.417C137.241 269.229 136.621 271.169 135.876 271.668C135.362 272.012 131.542 273.34 129.212 274.14C128.155 274.497 127.988 275.135 128.003 276.018C128.089 281.19 135.06 297.955 141.728 297.476C143.68 297.339 144.384 293.253 143.208 288.261C142.477 285.154 143.72 283.484 145.336 279.705C145.922 278.332 144.553 277.601 139.907 278.008C136.538 278.305 139.141 271.605 138.191 270.419V270.417Z" fill="black"/>
<path d="M204.436 199.82C202.924 212.054 191.846 242.844 188.911 247.554C186.629 251.216 165.315 264.168 155.958 270.645C155.57 270.914 155.213 272.131 154.866 272.367C153.192 273.522 152.037 274.3 151.663 274.547C149.354 276.069 143.339 267.112 145.074 264.889C145.317 264.578 146.016 263.845 147.041 262.803C147.348 262.492 148.285 262.396 148.647 262.031C155.734 254.899 169.72 236.948 175.432 233.85C177.963 210.676 177.812 190.857 181.781 177.038C181.781 177.038 201.325 183.402 223.881 180.007C226.52 203.555 227.996 230.184 227.839 241.443C227.774 246.097 223.113 269.809 221.131 283.355C221.058 283.856 221.753 284.273 221.687 284.745C221.407 286.697 221.175 288.386 221.014 289.712C220.424 290.917 208.521 294.389 208.843 292.384C209.106 290.743 209.323 289.086 209.507 287.418C209.548 287.05 210.513 286.288 210.551 285.921C211.956 272.031 208.864 255.957 210.711 244.264L204.433 199.818L204.436 199.82Z" fill="#0D1F35"/>
<path d="M208.198 103.249L196.552 103.222L183.013 107.911C183.013 107.911 181.456 135.523 181.456 135.525C180.458 152.157 182.268 170.188 177.9 186.272C177.168 188.976 225.624 189.187 225.14 186.149C223.566 176.297 223.361 161.89 223.731 151.956C224.165 140.256 224.39 128.546 224.762 116.846C224.779 116.322 225.359 109.366 224.996 109.243C224.992 109.243 214.108 105.547 214.108 105.547L208.198 103.251V103.249Z" fill="url(#paint3_linear_380_14893)"/>
<g style="mix-blend-mode:multiply">
<path d="M224.019 141.872L224.605 130.583L223.012 121.644C223.012 121.644 223.789 150.559 223.484 159.605L224.017 141.872H224.019Z" fill="#EDEDED"/>
</g>
<path d="M208.49 298.592C208.48 299.807 208.49 298.592 208.555 299.438C208.599 300.02 207.918 303.785 207.492 306.077C207.298 307.113 207.645 307.883 208.469 307.941C212.273 308.213 222.443 308.969 224.818 309.01C227.708 309.062 233.144 308.969 233.677 307.849C234.47 306.175 234.059 303.031 228.324 301.162C225.451 300.229 222.115 296.997 222.104 297.622C222.104 297.622 221.44 292.2 219.219 292.607C216.733 293.06 216.102 296.801 212.918 296.463C209.369 296.085 208.509 296.477 208.492 298.594L208.49 298.592Z" fill="black"/>
<path d="M233.683 305.039C233.683 305.039 233.681 305.031 233.677 305.026L233.699 305.085C233.693 305.07 233.689 305.054 233.683 305.039Z" fill="white"/>
<path d="M222.135 306.605C220.645 307.498 218.701 307.832 216.346 305.578C213.991 303.323 207.755 304.649 207.887 303.918C207.751 304.682 207.611 305.436 207.494 306.075C207.3 307.11 207.646 307.881 208.471 307.939C212.275 308.21 222.444 308.966 224.82 309.008C227.71 309.06 233.146 308.966 233.679 307.847C234.011 307.148 234.123 306.192 233.735 305.181C233.835 306.407 223.572 305.745 222.138 306.605H222.135Z" fill="#EDEDED" stroke="#EDEDED" stroke-width="0.208775" stroke-linecap="round" stroke-linejoin="round"/>
<path d="M137.465 290.621C135.55 287.758 133.702 287.971 132.878 285.99C132.055 284.007 134.419 282.33 133.838 280.476C133.258 278.622 130.821 273.591 131.886 273.211C130.947 273.543 129.995 273.871 129.21 274.14C128.153 274.497 127.986 275.136 128.001 276.019C128.086 281.19 135.057 297.955 141.726 297.477C142.582 297.416 143.198 296.598 143.519 295.276C142.15 295.988 139.377 293.481 137.463 290.621H137.465Z" fill="#EDEDED" stroke="#EDEDED" stroke-width="0.208775" stroke-miterlimit="10"/>
<g style="mix-blend-mode:multiply" opacity="0.5">
<path d="M195.536 103.572C195.536 103.572 193.631 105.13 194.456 110.491C195.281 115.853 199.262 117.16 201.561 116.406C205.022 115.27 205.106 111.239 205.106 111.239C205.106 111.239 204.891 116.304 208.354 116.742C211.476 117.137 215.701 111.585 212.01 105.034L203.44 103.161L195.536 103.572Z" fill="#C2C1C0"/>
</g>
<path d="M197.759 90.3072C198.606 95.679 198.644 99.4724 196.55 103.22C196.55 103.22 198.809 111.122 205.106 111.237C211.402 111.352 211.085 105.251 211.091 104.372L209.962 103.934C209.962 103.934 209.786 103.216 210.133 100.084C210.507 96.6999 207.611 88.7539 207.611 88.7539L197.761 90.3072H197.759Z" fill="#F8A284"/>
<path d="M210.133 100.084C208.31 100.097 202.243 95.7498 201.886 94.5891C201.529 93.4262 200.653 91.0879 200.653 91.0879C200.653 91.0879 200.377 96.587 202.613 99.3533C205.02 102.333 209.922 103.324 209.922 103.324C209.922 103.324 210.07 100.727 210.135 100.086L210.133 100.084Z" fill="#E4876D"/>
<path d="M195.961 84.255C196.302 89.9295 201.177 94.2532 206.849 93.915C212.523 93.5747 216.958 88.1424 216.618 82.4699C216.545 81.2444 216.524 79.2527 216.066 78.188C213.29 71.7264 203.068 70.528 197.794 76.5407C195.955 78.6389 195.809 81.6996 195.959 84.255H195.961Z" fill="#F8A284"/>
<path d="M216.463 84.7988C216.465 90.2353 214.029 99.4298 209.235 100.53C206.985 101.046 201.289 97.4506 200.778 93.6822C200.266 89.9159 199.732 85.7989 199.732 85.7989" fill="#F8A284"/>
<path d="M208.039 87.7479C208.004 88.5015 207.515 89.0924 206.953 89.0631C206.392 89.0339 205.97 88.3992 206.008 87.6435C206.045 86.8877 206.532 86.299 207.093 86.3261C207.653 86.3553 208.079 86.99 208.039 87.7458V87.7479Z" fill="#0C263E"/>
<path d="M215.634 88.1775C215.599 88.9312 215.108 89.5221 214.549 89.4928C213.987 89.4636 213.565 88.8289 213.603 88.0732C213.64 87.3153 214.127 86.7286 214.689 86.7558C215.248 86.785 215.674 87.4197 215.636 88.1775H215.634Z" fill="#0C263E"/>
<path d="M212.937 93.1632C212.749 93.253 211.736 93.6079 211.413 93.5474C211.085 93.491 209.713 92.9419 209.64 92.777C209.565 92.6142 213.292 92.9941 212.937 93.1632Z" fill="#E4876D"/>
<path d="M208.158 84.1683C206.993 83.4751 205.749 83.6359 204.688 84.4355C204.638 84.4647 204.576 84.4501 204.546 84.4C204.521 84.3582 204.53 84.304 204.563 84.2706C204.747 84.0973 204.935 83.9219 205.154 83.7883C205.805 83.3499 206.665 83.2058 207.411 83.4709C207.743 83.5858 208.041 83.7611 208.296 84.0117C208.338 84.0513 208.338 84.1181 208.296 84.1599C208.258 84.1975 208.202 84.1996 208.16 84.1703L208.158 84.1683Z" fill="#0C263E"/>
<path d="M213.835 84.3293C214.81 83.8783 216.252 84.3251 216.553 85.4233C216.57 85.4776 216.538 85.536 216.482 85.5527C216.432 85.5673 216.38 85.5423 216.357 85.4963C215.939 84.6341 214.839 84.298 213.952 84.5005C213.833 84.5694 213.718 84.4107 213.833 84.3293H213.835Z" fill="#0C263E"/>
<path d="M212.954 95.6508C212.807 95.3064 207.859 95.1164 207.513 95.2876C207.162 95.4588 208.96 97.4463 210.072 97.534C210.937 97.6008 213.129 96.0579 212.954 95.6508Z" fill="white"/>
<path d="M197.565 100.94C196.519 101.803 195.216 103.057 195.124 105.955C195.051 108.245 195.421 113.141 198.828 114.695C203.314 116.736 205.106 111.239 205.106 111.239C205.106 111.239 195.926 110.003 197.565 100.94Z" fill="url(#paint4_linear_380_14893)"/>
<path d="M209.951 102.785C209.951 102.785 211.146 103.447 212.01 105.034C212.903 106.679 213.822 113.424 210.164 115.264C206.505 117.103 205.106 111.239 205.106 111.239C205.106 111.239 209.302 111.477 210.5 107.719C211.1 105.84 210.734 104.151 209.962 103.934C209.92 103.322 209.951 102.783 209.951 102.783V102.785Z" fill="url(#paint5_linear_380_14893)"/>
<g style="mix-blend-mode:multiply" opacity="0.5">
<path d="M189.304 115.928L196.646 132.951L196.122 142.881C196.122 142.881 198.619 155.297 199.465 156.05C200.312 156.802 223.144 160.142 223.144 160.142L198.417 157.881L186.416 128.411L189.304 115.926V115.928Z" fill="#C2C1C0"/>
</g>
<g style="mix-blend-mode:multiply">
<path d="M232.412 128.868C232.412 128.868 226.985 131.735 224.572 132.426C224.572 132.426 231.048 130.543 231.652 130.252C231.618 129.973 232.464 129.202 232.412 128.868Z" fill="#EDEDED"/>
</g>
<path d="M200.671 89.8918C201.98 89.5891 201.049 82.5179 203.16 81.3947C203.16 81.3947 197.195 77.7683 196.133 85.7184C195.627 86.731 198.156 93.3116 198.156 93.3116L198.509 90.4096C198.509 90.4096 196.039 88.1674 196.275 86.6057C196.483 85.2027 197.734 84.8666 198.298 85.1297C199.73 85.8019 200.028 88.4763 200.083 89.2592C200.137 90.0442 200.671 89.8918 200.671 89.8918Z" fill="#132C50"/>
<path d="M195.978 88.5891C196.331 90.4034 197.888 92.6623 199.206 91.8753C200.264 91.2385 199.414 85.7644 197.941 85.5577C196.356 85.3364 195.623 86.7728 195.978 88.5891Z" fill="#E4876D"/>
<path d="M196.133 85.716C196.389 83.695 197.174 80.6699 202.3 81.4423C214.311 83.2566 220.937 82.5468 222.085 81.6177C223.643 80.3546 216.069 78.1834 216.069 78.1834C216.069 78.1834 214.778 71.1581 205.843 70.8115C201.6 70.6466 198.339 73.1268 196.627 75.7449C194.734 78.6427 194.784 82.9163 196.135 85.7139L196.133 85.716Z" fill="url(#paint6_linear_380_14893)"/>
<g style="mix-blend-mode:multiply" opacity="0.5">
<path d="M216.068 78.1854C216.695 80.1062 207.734 80.7033 201.884 79.7408C201.884 79.7408 216.58 78.5487 214.572 74.9766C214.572 74.9766 216.035 77.01 216.068 78.1854Z" fill="#C2C1C0"/>
</g>
<path d="M206.177 137.647H215.129L211.181 142.137H194.519L208.166 129.039L199.227 128.976L203.206 124.462H204.166C204.058 124.74 203.983 125.047 203.951 125.373C203.807 126.809 204.536 128.062 205.578 128.166C206.139 128.22 206.678 127.932 207.077 127.429C206.615 127.295 206.277 126.868 206.277 126.362C206.277 125.748 206.776 125.249 207.39 125.249C207.513 125.249 207.632 125.268 207.743 125.308C207.734 125.009 207.69 124.721 207.613 124.458H208.308C208.2 124.738 208.125 125.047 208.091 125.377C207.947 126.813 208.676 128.066 209.718 128.17C210.279 128.225 210.818 127.936 211.217 127.433C210.755 127.3 210.417 126.872 210.417 126.366C210.417 125.753 210.916 125.254 211.53 125.254C211.653 125.254 211.772 125.272 211.883 125.312C211.874 125.009 211.83 124.721 211.751 124.454L219.9 124.439L206.183 137.655L206.177 137.647Z" fill="#2867B1"/>
<g style="mix-blend-mode:multiply" opacity="0.5">
<path d="M181.099 141.461C181.099 141.461 188.909 165.453 191.466 166.729C194.024 168.004 232.583 170.311 232.583 170.311L193.287 160.739L184.596 139.072L181.099 141.461Z" fill="#C2C1C0"/>
</g>
<g style="mix-blend-mode:multiply" opacity="0.5">
<path d="M225.015 188.797C224.278 189.573 214.265 194.676 203.469 192.229C191.604 189.54 182.702 187.703 179.712 188.216L180.011 186.838L224.662 186.68L225.015 188.797Z" fill="#C2C1C0"/>
</g>
<path d="M246.049 132.88V121.303H250.344L248.726 125.584L250.344 132.88H246.049Z" fill="#323031"/>
<path d="M274.283 132.88V121.303H269.988L271.606 125.584L269.988 132.88H274.283Z" fill="#323031"/>
<path d="M274.278 121.306H246.031V125.601H274.278V121.306Z" fill="#414141"/>
<path d="M270.74 121H250.98V125.938H270.74V121Z" fill="#E9E9E9"/>
<path d="M252.273 125.723H250.98V126.372H252.273V125.723Z" fill="#99999A"/>
<path d="M254.119 125.723H252.826V126.372H254.119V125.723Z" fill="#99999A"/>
<path d="M255.965 125.723H254.672V126.372H255.965V125.723Z" fill="#99999A"/>
<path d="M257.811 125.723H256.518V126.372H257.811V125.723Z" fill="#99999A"/>
<path d="M259.656 125.723H258.364V126.372H259.656V125.723Z" fill="#99999A"/>
<path d="M261.504 125.723H260.212V126.372H261.504V125.723Z" fill="#99999A"/>
<path d="M263.35 125.723H262.058V126.372H263.35V125.723Z" fill="#99999A"/>
<path d="M265.196 125.723H263.904V126.372H265.196V125.723Z" fill="#99999A"/>
<path d="M267.042 125.723H265.749V126.372H267.042V125.723Z" fill="#99999A"/>
<path d="M268.888 125.723H267.595V126.372H268.888V125.723Z" fill="#99999A"/>
<path d="M270.733 125.723H269.441V126.372H270.733V125.723Z" fill="#99999A"/>
<path d="M232.874 165.676H224.923V168.24H232.874V165.676Z" fill="#292627"/>
<path d="M295.39 165.676H287.44V168.24H295.39V165.676Z" fill="#292627"/>
<path d="M298.2 138.491H222.111V165.118H298.2V138.491Z" fill="#E9E9E9"/>
<path d="M299.311 135.007H221V140.223H299.311V135.007Z" fill="#323031"/>
<path d="M298.216 161.908H222.1V166.924H298.216V161.908Z" fill="#323031"/>
<path d="M299.314 135.011H221L225.194 129.754H295.117L299.314 135.011Z" fill="#414141"/>
<path d="M226.064 143.076H223.629V160.646H226.064V143.076Z" fill="#99999A"/>
<path d="M231.111 143.076H228.675V160.646H231.111V143.076Z" fill="#99999A"/>
<path d="M236.154 143.076H233.719V160.646H236.154V143.076Z" fill="#99999A"/>
<path d="M241.198 143.076H238.762V160.646H241.198V143.076Z" fill="#99999A"/>
<path d="M246.242 143.076H243.806V160.646H246.242V143.076Z" fill="#99999A"/>
<path d="M276.507 143.076H274.072V160.646H276.507V143.076Z" fill="#99999A"/>
<path d="M281.551 143.076H279.115V160.646H281.551V143.076Z" fill="#99999A"/>
<path d="M286.595 143.076H284.159V160.646H286.595V143.076Z" fill="#99999A"/>
<path d="M291.639 143.076H289.203V160.646H291.639V143.076Z" fill="#99999A"/>
<path d="M296.683 143.076H294.247V160.646H296.683V143.076Z" fill="#99999A"/>
<path d="M294.235 145.674H282.277V146.397H294.235V145.674Z" fill="#323031"/>
<path d="M292.837 137.078H283.918V145.497H292.837V137.078Z" fill="#808083"/>
<path d="M285.716 137.714H284.74V144.861H285.716V137.714Z" fill="#59595C"/>
<path d="M287.828 137.714H286.852V144.861H287.828V137.714Z" fill="#59595C"/>
<path d="M289.94 137.714H288.964V144.861H289.94V137.714Z" fill="#59595C"/>
<path d="M292.052 137.714H291.076V144.861H292.052V137.714Z" fill="#59595C"/>
<path d="M283.92 145.492H292.828L293.205 146.746H283.544L283.92 145.492Z" fill="#59595C"/>
<path d="M283.358 146.593C283.358 146.919 283.094 147.183 282.768 147.183C282.442 147.183 282.178 146.919 282.178 146.593V137.718C282.178 137.392 282.442 137.128 282.768 137.128C283.094 137.128 283.358 137.392 283.358 137.718V146.593Z" fill="#323031"/>
<path d="M294.598 146.593C294.598 146.919 294.334 147.183 294.008 147.183C293.682 147.183 293.418 146.919 293.418 146.593V137.718C293.418 137.392 293.682 137.128 294.008 137.128C294.334 137.128 294.598 137.392 294.598 137.718V146.593Z" fill="#323031"/>
<path d="M294.444 138.923C294.444 139.148 294.263 139.332 294.036 139.332C293.808 139.332 293.629 139.151 293.629 138.923C293.629 138.696 293.811 138.515 294.036 138.515C294.261 138.515 294.444 138.698 294.444 138.923Z" fill="#BABCBE"/>
<path d="M294.102 138.856L294.298 138.923L294.102 138.987L294.036 139.182L293.969 138.987L293.774 138.923L293.969 138.856L294.036 138.661L294.102 138.856Z" fill="#414141"/>
<path d="M294.444 146.026C294.444 146.251 294.263 146.434 294.036 146.434C293.808 146.434 293.629 146.251 293.629 146.026C293.629 145.801 293.811 145.617 294.036 145.617C294.261 145.617 294.444 145.801 294.444 146.026Z" fill="#BABCBE"/>
<path d="M294.102 145.959L294.297 146.025L294.102 146.09L294.036 146.287L293.969 146.09L293.774 146.025L293.969 145.959L294.036 145.764L294.102 145.959Z" fill="#414141"/>
<path d="M283.168 138.923C283.168 139.148 282.986 139.332 282.759 139.332C282.532 139.332 282.353 139.151 282.353 138.923C282.353 138.696 282.534 138.515 282.759 138.515C282.984 138.515 283.168 138.698 283.168 138.923Z" fill="#BABCBE"/>
<path d="M282.826 138.856L283.021 138.923L282.826 138.987L282.759 139.182L282.692 138.987L282.497 138.923L282.692 138.856L282.759 138.661L282.826 138.856Z" fill="#414141"/>
<path d="M283.168 146.026C283.168 146.251 282.986 146.434 282.759 146.434C282.532 146.434 282.353 146.251 282.353 146.026C282.353 145.801 282.534 145.617 282.759 145.617C282.984 145.617 283.168 145.801 283.168 146.026Z" fill="#BABCBE"/>
<path d="M282.826 145.959L283.021 146.025L282.826 146.09L282.759 146.287L282.693 146.09L282.498 146.025L282.693 145.959L282.759 145.764L282.826 145.959Z" fill="#414141"/>
<path d="M237.773 145.674H225.814V146.397H237.773V145.674Z" fill="#323031"/>
<path d="M236.373 137.078H227.454V145.497H236.373V137.078Z" fill="#808083"/>
<path d="M229.251 137.714H228.275V144.861H229.251V137.714Z" fill="#59595C"/>
<path d="M231.363 137.714H230.387V144.861H231.363V137.714Z" fill="#59595C"/>
<path d="M233.475 137.714H232.5V144.861H233.475V137.714Z" fill="#59595C"/>
<path d="M235.59 137.714H234.614V144.861H235.59V137.714Z" fill="#59595C"/>
<path d="M227.456 145.492H236.363L236.74 146.746H227.079L227.456 145.492Z" fill="#59595C"/>
<path d="M226.896 146.593C226.896 146.919 226.632 147.183 226.306 147.183C225.98 147.183 225.716 146.919 225.716 146.593V137.718C225.716 137.392 225.98 137.128 226.306 137.128C226.632 137.128 226.896 137.392 226.896 137.718V146.593Z" fill="#323031"/>
<path d="M238.133 146.593C238.133 146.919 237.869 147.183 237.543 147.183C237.217 147.183 236.953 146.919 236.953 146.593V137.718C236.953 137.392 237.217 137.128 237.543 137.128C237.869 137.128 238.133 137.392 238.133 137.718V146.593Z" fill="#323031"/>
<path d="M237.98 138.923C237.98 139.148 237.798 139.332 237.573 139.332C237.348 139.332 237.167 139.151 237.167 138.923C237.167 138.696 237.348 138.515 237.573 138.515C237.798 138.515 237.98 138.698 237.98 138.923Z" fill="#BABCBE"/>
<path d="M237.638 138.856L237.833 138.923L237.638 138.987L237.571 139.182L237.505 138.987L237.312 138.923L237.505 138.856L237.571 138.661L237.638 138.856Z" fill="#414141"/>
<path d="M237.98 146.026C237.98 146.251 237.799 146.434 237.574 146.434C237.349 146.434 237.167 146.251 237.167 146.026C237.167 145.801 237.349 145.617 237.574 145.617C237.799 145.617 237.98 145.801 237.98 146.026Z" fill="#BABCBE"/>
<path d="M237.638 145.959L237.833 146.025L237.638 146.09L237.571 146.287L237.505 146.09L237.312 146.025L237.505 145.959L237.571 145.764L237.638 145.959Z" fill="#414141"/>
<path d="M226.703 138.923C226.703 139.148 226.521 139.332 226.296 139.332C226.071 139.332 225.888 139.151 225.888 138.923C225.888 138.696 226.069 138.515 226.296 138.515C226.524 138.515 226.703 138.698 226.703 138.923Z" fill="#BABCBE"/>
<path d="M226.361 138.856L226.556 138.923L226.361 138.987L226.294 139.182L226.228 138.987L226.035 138.923L226.228 138.856L226.294 138.661L226.361 138.856Z" fill="#414141"/>
<path d="M226.703 146.026C226.703 146.251 226.521 146.434 226.296 146.434C226.071 146.434 225.888 146.251 225.888 146.026C225.888 145.801 226.069 145.617 226.296 145.617C226.524 145.617 226.703 145.801 226.703 146.026Z" fill="#BABCBE"/>
<path d="M226.361 145.959L226.556 146.025L226.361 146.09L226.294 146.287L226.228 146.09L226.035 146.025L226.228 145.959L226.294 145.764L226.361 145.959Z" fill="#414141"/>
<path d="M259.395 154.617H266.006L263.091 157.935H250.785L260.864 148.26L254.261 148.214L257.2 144.881H257.909C257.829 145.085 257.774 145.313 257.751 145.554C257.645 146.614 258.182 147.54 258.951 147.615C259.367 147.657 259.764 147.443 260.058 147.071C259.718 146.972 259.468 146.658 259.468 146.284C259.468 145.831 259.835 145.462 260.29 145.462C260.379 145.462 260.469 145.476 260.549 145.505C260.545 145.285 260.51 145.072 260.453 144.876H260.965C260.885 145.083 260.829 145.313 260.804 145.554C260.699 146.614 261.236 147.54 262.005 147.615C262.42 147.657 262.818 147.443 263.111 147.071C262.772 146.972 262.521 146.658 262.521 146.284C262.521 145.831 262.889 145.462 263.343 145.462C263.433 145.462 263.522 145.476 263.603 145.505C263.598 145.28 263.564 145.069 263.504 144.872L269.521 144.86L259.392 154.62L259.395 154.617Z" fill="#2867B1"/>
<path d="M235.067 161.657C236.785 160.951 238.245 160.452 239.316 160.114C241.928 159.289 242.892 159.21 243.502 159.715C243.777 159.945 244.061 160.36 243.957 160.677C243.867 160.955 243.51 161.07 242.308 161.323C240.9 161.619 240.178 161.905 240.182 161.961C240.188 162.039 241.42 162.053 241.42 162.053C246.725 161.69 249.147 162.239 250.926 163.446C252.648 164.615 252.458 166.502 251.711 168.037C251.711 168.037 250.926 169.064 248.018 169.682C248.018 169.682 240.124 171.239 233.37 170.486C232.99 170.444 232.324 170.34 232 169.866C231.13 168.584 233.37 165.811 233.37 165.811L235.065 161.652L235.067 161.657Z" fill="#F8A284"/>
<path d="M248.809 163.718C247.402 164.271 244.389 164.371 244.389 164.371L248.809 163.718Z" fill="#E4876D"/>
<path d="M249.28 165.835C249.28 165.835 247.168 166.668 244.541 166.344L249.28 165.835Z" fill="#E4876D"/>
<path d="M248.836 168.36C247.821 168.891 245.312 168.853 244.769 168.78L248.836 168.36Z" fill="#E4876D"/>
<path d="M188.178 118.916C193.216 120.104 197.348 153.976 199.467 156.053C200.652 157.216 231.048 161.69 231.802 161.801C232.303 161.876 234.436 161.861 235.067 161.659C235.526 163.27 234.702 169.053 232.971 170.415C231.616 170.039 230.15 169.97 229.82 169.953C229.167 169.92 194.21 166.742 192.157 165.598C190.105 164.454 182.917 146.153 182.618 136.384C182.493 132.301 182.527 120.574 188.178 118.918V118.916Z" fill="#F8A284"/>
<path d="M183.013 107.911C185.955 106.41 192.381 121.526 195.009 132.626C195.12 133.098 194.632 134.595 194.73 135.046C194.905 135.839 195.06 136.599 195.193 137.315C195.208 139.883 181.786 144.986 181.594 141.967C181.439 141.215 180.909 140.282 180.694 139C180.629 138.618 178.756 136.647 178.692 136.228C177.299 127.286 175.957 111.511 183.013 107.909V107.911Z" fill="url(#paint7_linear_380_14893)"/>
<g style="mix-blend-mode:multiply" opacity="0.5">
<path d="M178.692 136.229C181.811 136.718 193.669 133.941 195.022 132.812C195.022 132.812 190.322 136.705 186.245 137.812C182.218 138.906 180.694 139.002 180.694 139.002C180.694 139.002 180.702 138.893 180.56 138.707C180.038 138.025 178.717 136.398 178.689 136.229H178.692Z" fill="#C2C1C0"/>
</g>
<defs>
<linearGradient id="paint0_linear_380_14893" x1="-116.677" y1="158.763" x2="22.6206" y2="158.763" gradientUnits="userSpaceOnUse">
<stop stop-color="#2967B0"/>
<stop offset="1" stop-color="#0D1F37"/>
</linearGradient>
<linearGradient id="paint1_linear_380_14893" x1="-115.865" y1="116.455" x2="22.6206" y2="116.455" gradientUnits="userSpaceOnUse">
<stop stop-color="#59A4FF"/>
<stop offset="1" stop-color="#2967B0"/>
</linearGradient>
<linearGradient id="paint2_linear_380_14893" x1="225.9" y1="135.115" x2="225.9" y2="109.241" gradientUnits="userSpaceOnUse">
<stop stop-color="#F3E909"/>
<stop offset="1" stop-color="#D59C29"/>
</linearGradient>
<linearGradient id="paint3_linear_380_14893" x1="177.89" y1="145.791" x2="225.142" y2="145.791" gradientUnits="userSpaceOnUse">
<stop stop-color="#F3E909"/>
<stop offset="1" stop-color="#D59C29"/>
</linearGradient>
<linearGradient id="paint4_linear_380_14893" x1="195.116" y1="108.045" x2="205.106" y2="108.045" gradientUnits="userSpaceOnUse">
<stop stop-color="#DC582A"/>
<stop offset="1" stop-color="#D59C29"/>
</linearGradient>
<linearGradient id="paint5_linear_380_14893" x1="205.106" y1="109.203" x2="212.812" y2="109.203" gradientUnits="userSpaceOnUse">
<stop stop-color="#DC582A"/>
<stop offset="1" stop-color="#D59C29"/>
</linearGradient>
<linearGradient id="paint6_linear_380_14893" x1="195.158" y1="78.2627" x2="222.296" y2="78.2627" gradientUnits="userSpaceOnUse">
<stop stop-color="#F3E909"/>
<stop offset="1" stop-color="#D59C29"/>
</linearGradient>
<linearGradient id="paint7_linear_380_14893" x1="177.579" y1="125.35" x2="195.193" y2="125.35" gradientUnits="userSpaceOnUse">
<stop stop-color="#F3E909"/>
<stop offset="1" stop-color="#D59C29"/>
</linearGradient>
</defs>
</svg>
