<svg width="26" height="26" viewBox="0 0 26 26" fill="none" xmlns="http://www.w3.org/2000/svg">
<g id="Group 1000003344">
<path id="Icon" d="M1.82324 1H3.32672C3.60991 1 3.7515 1 3.86544 1.0522C3.96586 1.09819 4.05095 1.17217 4.11058 1.2653C4.17825 1.37098 4.19827 1.51148 4.23832 1.79247L4.78312 5.61502M4.78312 5.61502L5.99392 14.5352C6.14757 15.6671 6.2244 16.2331 6.49438 16.6592C6.73228 17.0346 7.07335 17.3331 7.47653 17.5187C7.93409 17.7294 8.50396 17.7294 9.64371 17.7294H19.4944C20.5793 17.7294 21.1218 17.7294 21.5651 17.5338C21.956 17.3613 22.2913 17.0832 22.5335 16.7305C22.8082 16.3307 22.9097 15.7965 23.1127 14.7283L24.6363 6.71073C24.7078 6.33474 24.7435 6.14675 24.6917 5.9998C24.6463 5.87089 24.5567 5.76234 24.4389 5.69349C24.3045 5.61502 24.1136 5.61502 23.7317 5.61502H4.78312Z" stroke="#8E8E8E" stroke-width="2" stroke-linecap="round" stroke-linejoin="round"/>
<g id="Icon_2">
<path d="M9.88056 24.0751C10.5163 24.0751 11.0316 23.5585 11.0316 22.9213C11.0316 22.2841 10.5163 21.7676 9.88056 21.7676C9.24484 21.7676 8.72949 22.2841 8.72949 22.9213C8.72949 23.5585 9.24484 24.0751 9.88056 24.0751Z" stroke="#8E8E8E" stroke-width="2" stroke-linecap="round" stroke-linejoin="round"/>
<path d="M19.0891 24.0751C19.7248 24.0751 20.2401 23.5585 20.2401 22.9213C20.2401 22.2841 19.7248 21.7676 19.0891 21.7676C18.4534 21.7676 17.938 22.2841 17.938 22.9213C17.938 23.5585 18.4534 24.0751 19.0891 24.0751Z" stroke="#8E8E8E" stroke-width="2" stroke-linecap="round" stroke-linejoin="round"/>
</g>
</g>
</svg>
