<svg width="25" height="25" viewBox="0 0 25 25" fill="none" xmlns="http://www.w3.org/2000/svg">
<path id="Icon" d="M13.8792 1.61039C13.4518 1.2749 13.2381 1.10715 13.0021 1.04267C12.7939 0.985776 12.5745 0.985776 12.3663 1.04267C12.1303 1.10715 11.9166 1.2749 11.4892 1.61039L3.23825 8.08704C2.68671 8.51997 2.41094 8.73644 2.21227 9.00753C2.03628 9.24767 1.90518 9.5182 1.82541 9.80582C1.73535 10.1305 1.73535 10.4831 1.73535 11.1883V20.0711C1.73535 21.4464 1.73535 22.134 2.00054 22.6592C2.23381 23.1213 2.60602 23.4969 3.06383 23.7324C3.5843 24 4.26562 24 5.62827 24H8.06135C8.40201 24 8.57234 24 8.70246 23.9331C8.81691 23.8742 8.90996 23.7803 8.96828 23.6648C9.03458 23.5335 9.03458 23.3616 9.03458 23.0178V14.9145C9.03458 14.2269 9.03458 13.8831 9.16717 13.6204C9.2838 13.3894 9.46991 13.2016 9.69882 13.0839C9.95905 12.9501 10.2997 12.9501 10.981 12.9501H14.3873C15.0687 12.9501 15.4093 12.9501 15.6696 13.0839C15.8985 13.2016 16.0846 13.3894 16.2012 13.6204C16.3338 13.8831 16.3338 14.2269 16.3338 14.9145V23.0178C16.3338 23.3616 16.3338 23.5335 16.4001 23.6648C16.4584 23.7803 16.5515 23.8742 16.6659 23.9331C16.796 24 16.9664 24 17.307 24H19.7401C21.1028 24 21.7841 24 22.3045 23.7324C22.7624 23.4969 23.1346 23.1213 23.3678 22.6592C23.633 22.134 23.633 21.4464 23.633 20.0711V11.1883C23.633 10.4831 23.633 10.1305 23.543 9.80582C23.4632 9.5182 23.3321 9.24767 23.1561 9.00753C22.9574 8.73644 22.6817 8.51997 22.1301 8.08704L13.8792 1.61039Z" fill="#59A4FF" stroke="#59A4FF" stroke-width="2" stroke-linecap="round" stroke-linejoin="round"/>
</svg>
