<svg width="26" height="28" viewBox="0 0 26 28" fill="none" xmlns="http://www.w3.org/2000/svg">
<path id="Icon" d="M24.2602 11.1984H1.36719M17.901 1V6.09922M7.72636 1V6.09922M7.47199 26.4961H18.1554C20.2923 26.4961 21.3607 26.4961 22.1769 26.0793C22.8948 25.7126 23.4785 25.1276 23.8443 24.408C24.2602 23.5899 24.2602 22.5189 24.2602 20.3771V9.66868C24.2602 7.52681 24.2602 6.45587 23.8443 5.63778C23.4785 4.91817 22.8948 4.33311 22.1769 3.96645C21.3607 3.54961 20.2923 3.54961 18.1554 3.54961H7.47199C5.33511 3.54961 4.26667 3.54961 3.45049 3.96645C2.73256 4.33311 2.14886 4.91817 1.78305 5.63778C1.36719 6.45587 1.36719 7.52681 1.36719 9.66868V20.3771C1.36719 22.5189 1.36719 23.5899 1.78305 24.408C2.14886 25.1276 2.73256 25.7126 3.45049 26.0793C4.26667 26.4961 5.33511 26.4961 7.47199 26.4961Z" stroke="#8E8E8E" stroke-width="2" stroke-linecap="round" stroke-linejoin="round"/>
</svg>
