<svg width="24" height="29" viewBox="0 0 24 29" fill="none" xmlns="http://www.w3.org/2000/svg">
<path d="M7.87506 13.866L10.6251 16.5941L16.8126 10.4558M23.0001 14.548C23.0001 21.2435 15.6384 26.1132 12.9598 27.6634C12.6554 27.8396 12.5032 27.9277 12.2884 27.9734C12.1217 28.0089 11.8785 28.0089 11.7118 27.9734C11.4969 27.9277 11.3447 27.8396 11.0403 27.6634C8.36176 26.1132 1.00006 21.2435 1.00006 14.548V8.02445C1.00006 6.93385 1.00006 6.38856 1.17986 5.91982C1.33869 5.50574 1.59679 5.13626 1.93184 4.84333C2.31112 4.51173 2.82578 4.32026 3.85512 3.93733L11.2276 1.19462C11.5134 1.08827 11.6564 1.0351 11.8034 1.01402C11.9338 0.995326 12.0663 0.995326 12.1967 1.01402C12.3437 1.0351 12.4867 1.08827 12.7725 1.19462L20.145 3.93733C21.1743 4.32026 21.689 4.51173 22.0683 4.84333C22.4033 5.13626 22.6614 5.50574 22.8203 5.91982C23.0001 6.38856 23.0001 6.93385 23.0001 8.02445V14.548Z" stroke="#8E8E8E" stroke-width="2" stroke-linecap="round" stroke-linejoin="round"/>
</svg>
